<?xml version="1.0" encoding="utf-8" standalone="no"?>
<!DOCTYPE svg PUBLIC "-//W3C//DTD SVG 1.1//EN"
  "http://www.w3.org/Graphics/SVG/1.1/DTD/svg11.dtd">
<svg xmlns:xlink="http://www.w3.org/1999/xlink" width="864pt" height="648pt" viewBox="0 0 864 648" xmlns="http://www.w3.org/2000/svg" version="1.1">
 <metadata>
  <rdf:RDF xmlns:dc="http://purl.org/dc/elements/1.1/" xmlns:cc="http://creativecommons.org/ns#" xmlns:rdf="http://www.w3.org/1999/02/22-rdf-syntax-ns#">
   <cc:Work>
    <dc:type rdf:resource="http://purl.org/dc/dcmitype/StillImage"/>
    <dc:date>2025-09-01T12:30:12.527912</dc:date>
    <dc:format>image/svg+xml</dc:format>
    <dc:creator>
     <cc:Agent>
      <dc:title>Matplotlib v3.10.5, https://matplotlib.org/</dc:title>
     </cc:Agent>
    </dc:creator>
   </cc:Work>
  </rdf:RDF>
 </metadata>
 <defs>
  <style type="text/css">*{stroke-linejoin: round; stroke-linecap: butt}</style>
 </defs>
 <g id="figure_1">
  <g id="patch_1">
   <path d="M 0 648 
L 864 648 
L 864 0 
L 0 0 
z
" style="fill: #ffffff"/>
  </g>
  <g id="axes_1">
   <g id="LineCollection_1">
    <path d="M 422.663167 65.157025 
L 388.887242 406.414582 
" clip-path="url(#p75c31584f7)" style="fill: none; stroke: #000000; stroke-opacity: 0.25; stroke-width: 1.448916"/>
    <path d="M 83.900826 441.195733 
L 139.924363 181.6171 
" clip-path="url(#p75c31584f7)" style="fill: none; stroke: #000000; stroke-opacity: 0.25; stroke-width: 1.743899"/>
    <path d="M 83.900826 441.195733 
L 388.887242 406.414582 
" clip-path="url(#p75c31584f7)" style="fill: none; stroke: #000000; stroke-opacity: 0.25; stroke-width: 1.743899"/>
    <path d="M 501.85889 582.842975 
L 388.887242 406.414582 
" clip-path="url(#p75c31584f7)" style="fill: none; stroke: #000000; stroke-opacity: 0.25; stroke-width: 3.575952"/>
    <path d="M 780.099174 76.616344 
L 139.924363 181.6171 
" clip-path="url(#p75c31584f7)" style="fill: none; stroke: #000000; stroke-opacity: 0.25; stroke-width: 0.5235"/>
   </g>
   <g id="PathCollection_1">
    <path d="M 422.663167 80.696847 
C 426.784376 80.696847 430.737346 79.059473 433.651481 76.145338 
C 436.565616 73.231204 438.20299 69.278234 438.20299 65.157025 
C 438.20299 61.035816 436.565616 57.082846 433.651481 54.168711 
C 430.737346 51.254576 426.784376 49.617203 422.663167 49.617203 
C 418.541958 49.617203 414.588989 51.254576 411.674854 54.168711 
C 408.760719 57.082846 407.123345 61.035816 407.123345 65.157025 
C 407.123345 69.278234 408.760719 73.231204 411.674854 76.145338 
C 414.588989 79.059473 418.541958 80.696847 422.663167 80.696847 
z
" clip-path="url(#p75c31584f7)" style="fill: #3498db; stroke: #333333; stroke-width: 0.5"/>
    <path d="M 388.887242 417.091616 
C 391.718825 417.091616 394.434814 415.966616 396.437045 413.964385 
C 398.439277 411.962154 399.564276 409.246164 399.564276 406.414582 
C 399.564276 403.582999 398.439277 400.86701 396.437045 398.864778 
C 394.434814 396.862547 391.718825 395.737547 388.887242 395.737547 
C 386.055659 395.737547 383.33967 396.862547 381.337439 398.864778 
C 379.335208 400.86701 378.210208 403.582999 378.210208 406.414582 
C 378.210208 409.246164 379.335208 411.962154 381.337439 413.964385 
C 383.33967 415.966616 386.055659 417.091616 388.887242 417.091616 
z
" clip-path="url(#p75c31584f7)" style="fill: #e74c3c; stroke: #333333; stroke-width: 0.5"/>
    <path d="M 83.900826 456.616639 
C 87.990499 456.616639 91.913219 454.991795 94.805054 452.09996 
C 97.696889 449.208125 99.321733 445.285405 99.321733 441.195733 
C 99.321733 437.10606 97.696889 433.18334 94.805054 430.291505 
C 91.913219 427.39967 87.990499 425.774826 83.900826 425.774826 
C 79.811154 425.774826 75.888434 427.39967 72.996599 430.291505 
C 70.104764 433.18334 68.47992 437.10606 68.47992 441.195733 
C 68.47992 445.285405 70.104764 449.208125 72.996599 452.09996 
C 75.888434 454.991795 79.811154 456.616639 83.900826 456.616639 
z
" clip-path="url(#p75c31584f7)" style="fill: #3498db; stroke: #333333; stroke-width: 0.5"/>
    <path d="M 501.85889 600.350407 
C 506.501915 600.350407 510.955399 598.505714 514.238514 595.222599 
C 517.521629 591.939484 519.366322 587.486 519.366322 582.842975 
C 519.366322 578.19995 517.521629 573.746466 514.238514 570.463351 
C 510.955399 567.180237 506.501915 565.335543 501.85889 565.335543 
C 497.215865 565.335543 492.762381 567.180237 489.479266 570.463351 
C 486.196152 573.746466 484.351458 578.19995 484.351458 582.842975 
C 484.351458 587.486 486.196152 591.939484 489.479266 595.222599 
C 492.762381 598.505714 497.215865 600.350407 501.85889 600.350407 
z
" clip-path="url(#p75c31584f7)" style="fill: #3498db; stroke: #333333; stroke-width: 0.5"/>
    <path d="M 780.099174 88.056405 
C 783.133113 88.056405 786.043199 86.851008 788.188518 84.705688 
C 790.333838 82.560369 791.539235 79.650283 791.539235 76.616344 
C 791.539235 73.582404 790.333838 70.672318 788.188518 68.526999 
C 786.043199 66.381679 783.133113 65.176282 780.099174 65.176282 
C 777.065234 65.176282 774.155148 66.381679 772.009829 68.526999 
C 769.864509 70.672318 768.659112 73.582404 768.659112 76.616344 
C 768.659112 79.650283 769.864509 82.560369 772.009829 84.705688 
C 774.155148 86.851008 777.065234 88.056405 780.099174 88.056405 
z
" clip-path="url(#p75c31584f7)" style="fill: #3498db; stroke: #333333; stroke-width: 0.5"/>
    <path d="M 139.924363 192.276735 
C 142.751332 192.276735 145.462895 191.153569 147.461863 189.1546 
C 149.460832 187.155632 150.583998 184.444068 150.583998 181.6171 
C 150.583998 178.790132 149.460832 176.078568 147.461863 174.0796 
C 145.462895 172.080631 142.751332 170.957465 139.924363 170.957465 
C 137.097395 170.957465 134.385831 172.080631 132.386863 174.0796 
C 130.387895 176.078568 129.264728 178.790132 129.264728 181.6171 
C 129.264728 184.444068 130.387895 187.155632 132.386863 189.1546 
C 134.385831 191.153569 137.097395 192.276735 139.924363 192.276735 
z
" clip-path="url(#p75c31584f7)" style="fill: #e74c3c; stroke: #333333; stroke-width: 0.5"/>
   </g>
   <g id="text_1">
    <g clip-path="url(#p75c31584f7)">
     <!-- dualipa -->
     <g transform="translate(406.082074 67.640462) scale(0.09 -0.09)">
      <defs>
       <path id="DejaVuSans-64" d="M 2906 2969 
L 2906 4863 
L 3481 4863 
L 3481 0 
L 2906 0 
L 2906 525 
Q 2725 213 2448 61 
Q 2172 -91 1784 -91 
Q 1150 -91 751 415 
Q 353 922 353 1747 
Q 353 2572 751 3078 
Q 1150 3584 1784 3584 
Q 2172 3584 2448 3432 
Q 2725 3281 2906 2969 
z
M 947 1747 
Q 947 1113 1208 752 
Q 1469 391 1925 391 
Q 2381 391 2643 752 
Q 2906 1113 2906 1747 
Q 2906 2381 2643 2742 
Q 2381 3103 1925 3103 
Q 1469 3103 1208 2742 
Q 947 2381 947 1747 
z
" transform="scale(0.015625)"/>
       <path id="DejaVuSans-75" d="M 544 1381 
L 544 3500 
L 1119 3500 
L 1119 1403 
Q 1119 906 1312 657 
Q 1506 409 1894 409 
Q 2359 409 2629 706 
Q 2900 1003 2900 1516 
L 2900 3500 
L 3475 3500 
L 3475 0 
L 2900 0 
L 2900 538 
Q 2691 219 2414 64 
Q 2138 -91 1772 -91 
Q 1169 -91 856 284 
Q 544 659 544 1381 
z
M 1991 3584 
L 1991 3584 
z
" transform="scale(0.015625)"/>
       <path id="DejaVuSans-61" d="M 2194 1759 
Q 1497 1759 1228 1600 
Q 959 1441 959 1056 
Q 959 750 1161 570 
Q 1363 391 1709 391 
Q 2188 391 2477 730 
Q 2766 1069 2766 1631 
L 2766 1759 
L 2194 1759 
z
M 3341 1997 
L 3341 0 
L 2766 0 
L 2766 531 
Q 2569 213 2275 61 
Q 1981 -91 1556 -91 
Q 1019 -91 701 211 
Q 384 513 384 1019 
Q 384 1609 779 1909 
Q 1175 2209 1959 2209 
L 2766 2209 
L 2766 2266 
Q 2766 2663 2505 2880 
Q 2244 3097 1772 3097 
Q 1472 3097 1187 3025 
Q 903 2953 641 2809 
L 641 3341 
Q 956 3463 1253 3523 
Q 1550 3584 1831 3584 
Q 2591 3584 2966 3190 
Q 3341 2797 3341 1997 
z
" transform="scale(0.015625)"/>
       <path id="DejaVuSans-6c" d="M 603 4863 
L 1178 4863 
L 1178 0 
L 603 0 
L 603 4863 
z
" transform="scale(0.015625)"/>
       <path id="DejaVuSans-69" d="M 603 3500 
L 1178 3500 
L 1178 0 
L 603 0 
L 603 3500 
z
M 603 4863 
L 1178 4863 
L 1178 4134 
L 603 4134 
L 603 4863 
z
" transform="scale(0.015625)"/>
       <path id="DejaVuSans-70" d="M 1159 525 
L 1159 -1331 
L 581 -1331 
L 581 3500 
L 1159 3500 
L 1159 2969 
Q 1341 3281 1617 3432 
Q 1894 3584 2278 3584 
Q 2916 3584 3314 3078 
Q 3713 2572 3713 1747 
Q 3713 922 3314 415 
Q 2916 -91 2278 -91 
Q 1894 -91 1617 61 
Q 1341 213 1159 525 
z
M 3116 1747 
Q 3116 2381 2855 2742 
Q 2594 3103 2138 3103 
Q 1681 3103 1420 2742 
Q 1159 2381 1159 1747 
Q 1159 1113 1420 752 
Q 1681 391 2138 391 
Q 2594 391 2855 752 
Q 3116 1113 3116 1747 
z
" transform="scale(0.015625)"/>
      </defs>
      <use xlink:href="#DejaVuSans-64"/>
      <use xlink:href="#DejaVuSans-75" transform="translate(63.476562 0)"/>
      <use xlink:href="#DejaVuSans-61" transform="translate(126.855469 0)"/>
      <use xlink:href="#DejaVuSans-6c" transform="translate(188.134766 0)"/>
      <use xlink:href="#DejaVuSans-69" transform="translate(215.917969 0)"/>
      <use xlink:href="#DejaVuSans-70" transform="translate(243.701172 0)"/>
      <use xlink:href="#DejaVuSans-61" transform="translate(307.177734 0)"/>
     </g>
    </g>
   </g>
   <g id="text_2">
    <g clip-path="url(#p75c31584f7)">
     <!-- kyliejenner -->
     <g transform="translate(477.141937 585.326413) scale(0.09 -0.09)">
      <defs>
       <path id="DejaVuSans-6b" d="M 581 4863 
L 1159 4863 
L 1159 1991 
L 2875 3500 
L 3609 3500 
L 1753 1863 
L 3688 0 
L 2938 0 
L 1159 1709 
L 1159 0 
L 581 0 
L 581 4863 
z
" transform="scale(0.015625)"/>
       <path id="DejaVuSans-79" d="M 2059 -325 
Q 1816 -950 1584 -1140 
Q 1353 -1331 966 -1331 
L 506 -1331 
L 506 -850 
L 844 -850 
Q 1081 -850 1212 -737 
Q 1344 -625 1503 -206 
L 1606 56 
L 191 3500 
L 800 3500 
L 1894 763 
L 2988 3500 
L 3597 3500 
L 2059 -325 
z
" transform="scale(0.015625)"/>
       <path id="DejaVuSans-65" d="M 3597 1894 
L 3597 1613 
L 953 1613 
Q 991 1019 1311 708 
Q 1631 397 2203 397 
Q 2534 397 2845 478 
Q 3156 559 3463 722 
L 3463 178 
Q 3153 47 2828 -22 
Q 2503 -91 2169 -91 
Q 1331 -91 842 396 
Q 353 884 353 1716 
Q 353 2575 817 3079 
Q 1281 3584 2069 3584 
Q 2775 3584 3186 3129 
Q 3597 2675 3597 1894 
z
M 3022 2063 
Q 3016 2534 2758 2815 
Q 2500 3097 2075 3097 
Q 1594 3097 1305 2825 
Q 1016 2553 972 2059 
L 3022 2063 
z
" transform="scale(0.015625)"/>
       <path id="DejaVuSans-6a" d="M 603 3500 
L 1178 3500 
L 1178 -63 
Q 1178 -731 923 -1031 
Q 669 -1331 103 -1331 
L -116 -1331 
L -116 -844 
L 38 -844 
Q 366 -844 484 -692 
Q 603 -541 603 -63 
L 603 3500 
z
M 603 4863 
L 1178 4863 
L 1178 4134 
L 603 4134 
L 603 4863 
z
" transform="scale(0.015625)"/>
       <path id="DejaVuSans-6e" d="M 3513 2113 
L 3513 0 
L 2938 0 
L 2938 2094 
Q 2938 2591 2744 2837 
Q 2550 3084 2163 3084 
Q 1697 3084 1428 2787 
Q 1159 2491 1159 1978 
L 1159 0 
L 581 0 
L 581 3500 
L 1159 3500 
L 1159 2956 
Q 1366 3272 1645 3428 
Q 1925 3584 2291 3584 
Q 2894 3584 3203 3211 
Q 3513 2838 3513 2113 
z
" transform="scale(0.015625)"/>
       <path id="DejaVuSans-72" d="M 2631 2963 
Q 2534 3019 2420 3045 
Q 2306 3072 2169 3072 
Q 1681 3072 1420 2755 
Q 1159 2438 1159 1844 
L 1159 0 
L 581 0 
L 581 3500 
L 1159 3500 
L 1159 2956 
Q 1341 3275 1631 3429 
Q 1922 3584 2338 3584 
Q 2397 3584 2469 3576 
Q 2541 3569 2628 3553 
L 2631 2963 
z
" transform="scale(0.015625)"/>
      </defs>
      <use xlink:href="#DejaVuSans-6b"/>
      <use xlink:href="#DejaVuSans-79" transform="translate(54.285156 0)"/>
      <use xlink:href="#DejaVuSans-6c" transform="translate(113.464844 0)"/>
      <use xlink:href="#DejaVuSans-69" transform="translate(141.248047 0)"/>
      <use xlink:href="#DejaVuSans-65" transform="translate(169.03125 0)"/>
      <use xlink:href="#DejaVuSans-6a" transform="translate(230.554688 0)"/>
      <use xlink:href="#DejaVuSans-65" transform="translate(258.337891 0)"/>
      <use xlink:href="#DejaVuSans-6e" transform="translate(319.861328 0)"/>
      <use xlink:href="#DejaVuSans-6e" transform="translate(383.240234 0)"/>
      <use xlink:href="#DejaVuSans-65" transform="translate(446.619141 0)"/>
      <use xlink:href="#DejaVuSans-72" transform="translate(508.142578 0)"/>
     </g>
    </g>
   </g>
  </g>
 </g>
 <defs>
  <clipPath id="p75c31584f7">
   <rect x="10.8" y="10.8" width="842.4" height="626.4"/>
  </clipPath>
 </defs>
</svg>
