<?xml version="1.0" encoding="utf-8" standalone="no"?>
<!DOCTYPE svg PUBLIC "-//W3C//DTD SVG 1.1//EN"
  "http://www.w3.org/Graphics/SVG/1.1/DTD/svg11.dtd">
<svg xmlns:xlink="http://www.w3.org/1999/xlink" width="864pt" height="576pt" viewBox="0 0 864 576" xmlns="http://www.w3.org/2000/svg" version="1.1">
 <metadata>
  <rdf:RDF xmlns:dc="http://purl.org/dc/elements/1.1/" xmlns:cc="http://creativecommons.org/ns#" xmlns:rdf="http://www.w3.org/1999/02/22-rdf-syntax-ns#">
   <cc:Work>
    <dc:type rdf:resource="http://purl.org/dc/dcmitype/StillImage"/>
    <dc:date>2025-09-01T12:30:15.604072</dc:date>
    <dc:format>image/svg+xml</dc:format>
    <dc:creator>
     <cc:Agent>
      <dc:title>Matplotlib v3.10.5, https://matplotlib.org/</dc:title>
     </cc:Agent>
    </dc:creator>
   </cc:Work>
  </rdf:RDF>
 </metadata>
 <defs>
  <style type="text/css">*{stroke-linejoin: round; stroke-linecap: butt}</style>
 </defs>
 <g id="figure_1">
  <g id="patch_1">
   <path d="M 0 576 
L 864 576 
L 864 0 
L 0 0 
z
" style="fill: #ffffff"/>
  </g>
  <g id="axes_1">
   <g id="LineCollection_1">
    <path d="M 83.900826 468 
L 780.099174 144 
" clip-path="url(#p813c014332)" style="fill: none; stroke: #000000; stroke-opacity: 0.25; stroke-width: 2.97996"/>
    <path d="M 83.900826 288 
L 780.099174 108 
" clip-path="url(#p813c014332)" style="fill: none; stroke: #000000; stroke-opacity: 0.25; stroke-width: 1.453249"/>
    <path d="M 83.900826 288 
L 780.099174 144 
" clip-path="url(#p813c014332)" style="fill: none; stroke: #000000; stroke-opacity: 0.25; stroke-width: 1.453249"/>
   </g>
   <g id="PathCollection_1">
    <path d="M 63.901451 559.999375 
L 103.900201 559.999375 
L 103.900201 520.000625 
L 63.901451 520.000625 
z
" clip-path="url(#p813c014332)" style="fill: #1f78b4; stroke: #000000; stroke-width: 0.6"/>
    <path d="M 65.476305 522.424521 
L 102.325347 522.424521 
L 102.325347 485.575479 
L 65.476305 485.575479 
z
" clip-path="url(#p813c014332)" style="fill: #1f78b4; stroke: #000000; stroke-width: 0.6"/>
    <path d="M 66.393395 485.507432 
L 101.408258 485.507432 
L 101.408258 450.492568 
L 66.393395 450.492568 
z
" clip-path="url(#p813c014332)" style="fill: #1f78b4; stroke: #000000; stroke-width: 0.6"/>
    <path d="M 67.906418 447.994409 
L 99.895235 447.994409 
L 99.895235 416.005591 
L 67.906418 416.005591 
z
" clip-path="url(#p813c014332)" style="fill: #1f78b4; stroke: #000000; stroke-width: 0.6"/>
    <path d="M 68.245236 411.655591 
L 99.556417 411.655591 
L 99.556417 380.344409 
L 68.245236 380.344409 
z
" clip-path="url(#p813c014332)" style="fill: #1f78b4; stroke: #000000; stroke-width: 0.6"/>
    <path d="M 68.361004 375.539822 
L 99.440649 375.539822 
L 99.440649 344.460178 
L 68.361004 344.460178 
z
" clip-path="url(#p813c014332)" style="fill: #1f78b4; stroke: #000000; stroke-width: 0.6"/>
    <path d="M 68.427718 339.473109 
L 99.373935 339.473109 
L 99.373935 308.526891 
L 68.427718 308.526891 
z
" clip-path="url(#p813c014332)" style="fill: #1f78b4; stroke: #000000; stroke-width: 0.6"/>
    <path d="M 68.47992 303.420907 
L 99.321733 303.420907 
L 99.321733 272.579093 
L 68.47992 272.579093 
z
" clip-path="url(#p813c014332)" style="fill: #1f78b4; stroke: #000000; stroke-width: 0.6"/>
    <path d="M 68.938084 266.962743 
L 98.863569 266.962743 
L 98.863569 237.037257 
L 68.938084 237.037257 
z
" clip-path="url(#p813c014332)" style="fill: #1f78b4; stroke: #000000; stroke-width: 0.6"/>
    <path d="M 69.40714 230.493686 
L 98.394513 230.493686 
L 98.394513 201.506314 
L 69.40714 201.506314 
z
" clip-path="url(#p813c014332)" style="fill: #1f78b4; stroke: #000000; stroke-width: 0.6"/>
    <path d="M 69.957555 193.943271 
L 97.844098 193.943271 
L 97.844098 166.056729 
L 69.957555 166.056729 
z
" clip-path="url(#p813c014332)" style="fill: #1f78b4; stroke: #000000; stroke-width: 0.6"/>
    <path d="M 69.988401 157.912425 
L 97.813252 157.912425 
L 97.813252 130.087575 
L 69.988401 130.087575 
z
" clip-path="url(#p813c014332)" style="fill: #1f78b4; stroke: #000000; stroke-width: 0.6"/>
    <path d="M 69.999716 121.901111 
L 97.801937 121.901111 
L 97.801937 94.098889 
L 69.999716 94.098889 
z
" clip-path="url(#p813c014332)" style="fill: #1f78b4; stroke: #000000; stroke-width: 0.6"/>
    <path d="M 70.044261 85.856565 
L 97.757392 85.856565 
L 97.757392 58.143435 
L 70.044261 58.143435 
z
" clip-path="url(#p813c014332)" style="fill: #1f78b4; stroke: #000000; stroke-width: 0.6"/>
    <path d="M 70.479963 49.420864 
L 97.32169 49.420864 
L 97.32169 22.579136 
L 70.479963 22.579136 
z
" clip-path="url(#p813c014332)" style="fill: #1f78b4; stroke: #000000; stroke-width: 0.6"/>
   </g>
   <g id="PathCollection_2">
    <path d="M 780.099174 561.420951 
C 785.780076 561.420951 791.229069 559.163904 795.246073 555.1469 
C 799.263078 551.129895 801.520125 545.680903 801.520125 540 
C 801.520125 534.319097 799.263078 528.870105 795.246073 524.8531 
C 791.229069 520.836096 785.780076 518.579049 780.099174 518.579049 
C 774.418271 518.579049 768.969279 520.836096 764.952274 524.8531 
C 760.935269 528.870105 758.678223 534.319097 758.678223 540 
C 758.678223 545.680903 760.935269 551.129895 764.952274 555.1469 
C 768.969279 559.163904 774.418271 561.420951 780.099174 561.420951 
z
" clip-path="url(#p813c014332)" style="fill: #1f78b4; stroke: #000000; stroke-width: 0.6"/>
    <path d="M 780.099174 523.714456 
C 785.327508 523.714456 790.342408 521.637217 794.039399 517.940226 
C 797.73639 514.243234 799.81363 509.228335 799.81363 504 
C 799.81363 498.771665 797.73639 493.756766 794.039399 490.059774 
C 790.342408 486.362783 785.327508 484.285544 780.099174 484.285544 
C 774.870839 484.285544 769.855939 486.362783 766.158948 490.059774 
C 762.461957 493.756766 760.384718 498.771665 760.384718 504 
C 760.384718 509.228335 762.461957 514.243234 766.158948 517.940226 
C 769.855939 521.637217 774.870839 523.714456 780.099174 523.714456 
z
" clip-path="url(#p813c014332)" style="fill: #1f78b4; stroke: #000000; stroke-width: 0.6"/>
    <path d="M 780.099174 487.197431 
C 785.190392 487.197431 790.073772 485.174668 793.673807 481.574634 
C 797.273842 477.974599 799.296604 473.091218 799.296604 468 
C 799.296604 462.908782 797.273842 458.025401 793.673807 454.425366 
C 790.073772 450.825332 785.190392 448.802569 780.099174 448.802569 
C 775.007955 448.802569 770.124575 450.825332 766.52454 454.425366 
C 762.924505 458.025401 760.901743 462.908782 760.901743 468 
C 760.901743 473.091218 762.924505 477.974599 766.52454 481.574634 
C 770.124575 485.174668 775.007955 487.197431 780.099174 487.197431 
z
" clip-path="url(#p813c014332)" style="fill: #1f78b4; stroke: #000000; stroke-width: 0.6"/>
    <path d="M 780.099174 450.412361 
C 784.982189 450.412361 789.665866 448.472318 793.118679 445.019505 
C 796.571492 441.566692 798.511535 436.883015 798.511535 432 
C 798.511535 427.116985 796.571492 422.433308 793.118679 418.980495 
C 789.665866 415.527682 784.982189 413.587639 780.099174 413.587639 
C 775.216158 413.587639 770.532481 415.527682 767.079668 418.980495 
C 763.626855 422.433308 761.686813 427.116985 761.686813 432 
C 761.686813 436.883015 763.626855 441.566692 767.079668 445.019505 
C 770.532481 448.472318 775.216158 450.412361 780.099174 450.412361 
z
" clip-path="url(#p813c014332)" style="fill: #1f78b4; stroke: #000000; stroke-width: 0.6"/>
    <path d="M 780.099174 413.228888 
C 784.668328 413.228888 789.050957 411.413544 792.281837 408.182664 
C 795.512717 404.951783 797.328062 400.569155 797.328062 396 
C 797.328062 391.430845 795.512717 387.048217 792.281837 383.817336 
C 789.050957 380.586456 784.668328 378.771112 780.099174 378.771112 
C 775.530019 378.771112 771.14739 380.586456 767.91651 383.817336 
C 764.68563 387.048217 762.870285 391.430845 762.870285 396 
C 762.870285 400.569155 764.68563 404.951783 767.91651 408.182664 
C 771.14739 411.413544 775.530019 413.228888 780.099174 413.228888 
z
" clip-path="url(#p813c014332)" style="fill: #1f78b4; stroke: #000000; stroke-width: 0.6"/>
    <path d="M 780.099174 376.621731 
C 784.507308 376.621731 788.735491 374.870361 791.852513 371.753339 
C 794.969534 368.636317 796.720905 364.408135 796.720905 360 
C 796.720905 355.591865 794.969534 351.363683 791.852513 348.246661 
C 788.735491 345.129639 784.507308 343.378269 780.099174 343.378269 
C 775.691039 343.378269 771.462856 345.129639 768.345835 348.246661 
C 765.228813 351.363683 763.477442 355.591865 763.477442 360 
C 763.477442 364.408135 765.228813 368.636317 768.345835 371.753339 
C 771.462856 374.870361 775.691039 376.621731 780.099174 376.621731 
z
" clip-path="url(#p813c014332)" style="fill: #1f78b4; stroke: #000000; stroke-width: 0.6"/>
    <path d="M 780.099174 338.660106 
C 783.987079 338.660106 787.716269 337.115425 790.465434 334.36626 
C 793.214598 331.617096 794.759279 327.887906 794.759279 324 
C 794.759279 320.112094 793.214598 316.382904 790.465434 313.63374 
C 787.716269 310.884575 783.987079 309.339894 780.099174 309.339894 
C 776.211268 309.339894 772.482078 310.884575 769.732913 313.63374 
C 766.983749 316.382904 765.439068 320.112094 765.439068 324 
C 765.439068 327.887906 766.983749 331.617096 769.732913 334.36626 
C 772.482078 337.115425 776.211268 338.660106 780.099174 338.660106 
z
" clip-path="url(#p813c014332)" style="fill: #1f78b4; stroke: #000000; stroke-width: 0.6"/>
    <path d="M 780.099174 301.839558 
C 783.769467 301.839558 787.289929 300.381335 789.885219 297.786045 
C 792.480508 295.190756 793.938732 291.670294 793.938732 288 
C 793.938732 284.329706 792.480508 280.809244 789.885219 278.213955 
C 787.289929 275.618665 783.769467 274.160442 780.099174 274.160442 
C 776.42888 274.160442 772.908418 275.618665 770.313128 278.213955 
C 767.717839 280.809244 766.259616 284.329706 766.259616 288 
C 766.259616 291.670294 767.717839 295.190756 770.313128 297.786045 
C 772.908418 300.381335 776.42888 301.839558 780.099174 301.839558 
z
" clip-path="url(#p813c014332)" style="fill: #1f78b4; stroke: #000000; stroke-width: 0.6"/>
    <path d="M 780.099174 265.556534 
C 783.694408 265.556534 787.142876 264.128132 789.68509 261.585917 
C 792.227305 259.043702 793.655707 255.595235 793.655707 252 
C 793.655707 248.404765 792.227305 244.956298 789.68509 242.414083 
C 787.142876 239.871868 783.694408 238.443466 780.099174 238.443466 
C 776.503939 238.443466 773.055472 239.871868 770.513257 242.414083 
C 767.971042 244.956298 766.54264 248.404765 766.54264 252 
C 766.54264 255.595235 767.971042 259.043702 770.513257 261.585917 
C 773.055472 264.128132 776.503939 265.556534 780.099174 265.556534 
z
" clip-path="url(#p813c014332)" style="fill: #1f78b4; stroke: #000000; stroke-width: 0.6"/>
    <path d="M 780.099174 229.538524 
C 783.689632 229.538524 787.133518 228.11202 789.672356 225.573182 
C 792.211193 223.034345 793.637698 219.590459 793.637698 216 
C 793.637698 212.409541 792.211193 208.965655 789.672356 206.426818 
C 787.133518 203.88798 783.689632 202.461476 780.099174 202.461476 
C 776.508715 202.461476 773.064829 203.88798 770.525991 206.426818 
C 767.987154 208.965655 766.560649 212.409541 766.560649 216 
C 766.560649 219.590459 767.987154 223.034345 770.525991 225.573182 
C 773.064829 228.11202 776.508715 229.538524 780.099174 229.538524 
z
" clip-path="url(#p813c014332)" style="fill: #1f78b4; stroke: #000000; stroke-width: 0.6"/>
    <path d="M 780.099174 192.116334 
C 783.312463 192.116334 786.394577 190.83968 788.666715 188.567542 
C 790.938854 186.295403 792.215507 183.213289 792.215507 180 
C 792.215507 176.786711 790.938854 173.704597 788.666715 171.432458 
C 786.394577 169.16032 783.312463 167.883666 780.099174 167.883666 
C 776.885884 167.883666 773.80377 169.16032 771.531632 171.432458 
C 769.259493 173.704597 767.98284 176.786711 767.98284 180 
C 767.98284 183.213289 769.259493 186.295403 771.531632 188.567542 
C 773.80377 190.83968 776.885884 192.116334 780.099174 192.116334 
z
" clip-path="url(#p813c014332)" style="fill: #1f78b4; stroke: #000000; stroke-width: 0.6"/>
    <path d="M 780.099174 155.198168 
C 783.068962 155.198168 785.917516 154.018258 788.017474 151.918301 
C 790.117432 149.818343 791.297342 146.969789 791.297342 144 
C 791.297342 141.030211 790.117432 138.181657 788.017474 136.081699 
C 785.917516 133.981742 783.068962 132.801832 780.099174 132.801832 
C 777.129385 132.801832 774.280831 133.981742 772.180873 136.081699 
C 770.080915 138.181657 768.901006 141.030211 768.901006 144 
C 768.901006 146.969789 770.080915 149.818343 772.180873 151.918301 
C 774.280831 154.018258 777.129385 155.198168 780.099174 155.198168 
z
" clip-path="url(#p813c014332)" style="fill: #1f78b4; stroke: #000000; stroke-width: 0.6"/>
    <path d="M 780.099174 119.17992 
C 783.064123 119.17992 785.908035 118.001933 788.00457 115.905397 
C 790.101106 113.808861 791.279093 110.964949 791.279093 108 
C 791.279093 105.035051 790.101106 102.191139 788.00457 100.094603 
C 785.908035 97.998067 783.064123 96.82008 780.099174 96.82008 
C 777.134224 96.82008 774.290312 97.998067 772.193777 100.094603 
C 770.097241 102.191139 768.919254 105.035051 768.919254 108 
C 768.919254 110.964949 770.097241 113.808861 772.193777 115.905397 
C 774.290312 118.001933 777.134224 119.17992 780.099174 119.17992 
z
" clip-path="url(#p813c014332)" style="fill: #1f78b4; stroke: #000000; stroke-width: 0.6"/>
    <path d="M 780.099174 82.517373 
C 782.888413 82.517373 785.563789 81.409196 787.536079 79.436906 
C 789.50837 77.464615 790.616546 74.78924 790.616546 72 
C 790.616546 69.21076 789.50837 66.535385 787.536079 64.563094 
C 785.563789 62.590804 782.888413 61.482627 780.099174 61.482627 
C 777.309934 61.482627 774.634558 62.590804 772.662268 64.563094 
C 770.689977 66.535385 769.581801 69.21076 769.581801 72 
C 769.581801 74.78924 770.689977 77.464615 772.662268 79.436906 
C 774.634558 81.409196 777.309934 82.517373 780.099174 82.517373 
z
" clip-path="url(#p813c014332)" style="fill: #1f78b4; stroke: #000000; stroke-width: 0.6"/>
    <path d="M 780.099174 45.526279 
C 782.625572 45.526279 785.048837 44.522531 786.83527 42.736097 
C 788.621704 40.949663 789.625453 38.526399 789.625453 36 
C 789.625453 33.473601 788.621704 31.050337 786.83527 29.263903 
C 785.048837 27.477469 782.625572 26.473721 780.099174 26.473721 
C 777.572775 26.473721 775.149511 27.477469 773.363077 29.263903 
C 771.576643 31.050337 770.572894 33.473601 770.572894 36 
C 770.572894 38.526399 771.576643 40.949663 773.363077 42.736097 
C 775.149511 44.522531 777.572775 45.526279 780.099174 45.526279 
z
" clip-path="url(#p813c014332)" style="fill: #1f78b4; stroke: #000000; stroke-width: 0.6"/>
   </g>
   <g id="text_1">
    <g clip-path="url(#p813c014332)">
     <!-- roses_are_rosie -->
     <g transform="translate(49.300748 542.358281) scale(0.09 -0.09)">
      <defs>
       <path id="DejaVuSans-72" d="M 2631 2963 
Q 2534 3019 2420 3045 
Q 2306 3072 2169 3072 
Q 1681 3072 1420 2755 
Q 1159 2438 1159 1844 
L 1159 0 
L 581 0 
L 581 3500 
L 1159 3500 
L 1159 2956 
Q 1341 3275 1631 3429 
Q 1922 3584 2338 3584 
Q 2397 3584 2469 3576 
Q 2541 3569 2628 3553 
L 2631 2963 
z
" transform="scale(0.015625)"/>
       <path id="DejaVuSans-6f" d="M 1959 3097 
Q 1497 3097 1228 2736 
Q 959 2375 959 1747 
Q 959 1119 1226 758 
Q 1494 397 1959 397 
Q 2419 397 2687 759 
Q 2956 1122 2956 1747 
Q 2956 2369 2687 2733 
Q 2419 3097 1959 3097 
z
M 1959 3584 
Q 2709 3584 3137 3096 
Q 3566 2609 3566 1747 
Q 3566 888 3137 398 
Q 2709 -91 1959 -91 
Q 1206 -91 779 398 
Q 353 888 353 1747 
Q 353 2609 779 3096 
Q 1206 3584 1959 3584 
z
" transform="scale(0.015625)"/>
       <path id="DejaVuSans-73" d="M 2834 3397 
L 2834 2853 
Q 2591 2978 2328 3040 
Q 2066 3103 1784 3103 
Q 1356 3103 1142 2972 
Q 928 2841 928 2578 
Q 928 2378 1081 2264 
Q 1234 2150 1697 2047 
L 1894 2003 
Q 2506 1872 2764 1633 
Q 3022 1394 3022 966 
Q 3022 478 2636 193 
Q 2250 -91 1575 -91 
Q 1294 -91 989 -36 
Q 684 19 347 128 
L 347 722 
Q 666 556 975 473 
Q 1284 391 1588 391 
Q 1994 391 2212 530 
Q 2431 669 2431 922 
Q 2431 1156 2273 1281 
Q 2116 1406 1581 1522 
L 1381 1569 
Q 847 1681 609 1914 
Q 372 2147 372 2553 
Q 372 3047 722 3315 
Q 1072 3584 1716 3584 
Q 2034 3584 2315 3537 
Q 2597 3491 2834 3397 
z
" transform="scale(0.015625)"/>
       <path id="DejaVuSans-65" d="M 3597 1894 
L 3597 1613 
L 953 1613 
Q 991 1019 1311 708 
Q 1631 397 2203 397 
Q 2534 397 2845 478 
Q 3156 559 3463 722 
L 3463 178 
Q 3153 47 2828 -22 
Q 2503 -91 2169 -91 
Q 1331 -91 842 396 
Q 353 884 353 1716 
Q 353 2575 817 3079 
Q 1281 3584 2069 3584 
Q 2775 3584 3186 3129 
Q 3597 2675 3597 1894 
z
M 3022 2063 
Q 3016 2534 2758 2815 
Q 2500 3097 2075 3097 
Q 1594 3097 1305 2825 
Q 1016 2553 972 2059 
L 3022 2063 
z
" transform="scale(0.015625)"/>
       <path id="DejaVuSans-5f" d="M 3263 -1063 
L 3263 -1509 
L -63 -1509 
L -63 -1063 
L 3263 -1063 
z
" transform="scale(0.015625)"/>
       <path id="DejaVuSans-61" d="M 2194 1759 
Q 1497 1759 1228 1600 
Q 959 1441 959 1056 
Q 959 750 1161 570 
Q 1363 391 1709 391 
Q 2188 391 2477 730 
Q 2766 1069 2766 1631 
L 2766 1759 
L 2194 1759 
z
M 3341 1997 
L 3341 0 
L 2766 0 
L 2766 531 
Q 2569 213 2275 61 
Q 1981 -91 1556 -91 
Q 1019 -91 701 211 
Q 384 513 384 1019 
Q 384 1609 779 1909 
Q 1175 2209 1959 2209 
L 2766 2209 
L 2766 2266 
Q 2766 2663 2505 2880 
Q 2244 3097 1772 3097 
Q 1472 3097 1187 3025 
Q 903 2953 641 2809 
L 641 3341 
Q 956 3463 1253 3523 
Q 1550 3584 1831 3584 
Q 2591 3584 2966 3190 
Q 3341 2797 3341 1997 
z
" transform="scale(0.015625)"/>
       <path id="DejaVuSans-69" d="M 603 3500 
L 1178 3500 
L 1178 0 
L 603 0 
L 603 3500 
z
M 603 4863 
L 1178 4863 
L 1178 4134 
L 603 4134 
L 603 4863 
z
" transform="scale(0.015625)"/>
      </defs>
      <use xlink:href="#DejaVuSans-72"/>
      <use xlink:href="#DejaVuSans-6f" transform="translate(38.863281 0)"/>
      <use xlink:href="#DejaVuSans-73" transform="translate(100.044922 0)"/>
      <use xlink:href="#DejaVuSans-65" transform="translate(152.144531 0)"/>
      <use xlink:href="#DejaVuSans-73" transform="translate(213.667969 0)"/>
      <use xlink:href="#DejaVuSans-5f" transform="translate(265.767578 0)"/>
      <use xlink:href="#DejaVuSans-61" transform="translate(315.767578 0)"/>
      <use xlink:href="#DejaVuSans-72" transform="translate(377.046875 0)"/>
      <use xlink:href="#DejaVuSans-65" transform="translate(415.910156 0)"/>
      <use xlink:href="#DejaVuSans-5f" transform="translate(477.433594 0)"/>
      <use xlink:href="#DejaVuSans-72" transform="translate(527.433594 0)"/>
      <use xlink:href="#DejaVuSans-6f" transform="translate(566.296875 0)"/>
      <use xlink:href="#DejaVuSans-73" transform="translate(627.478516 0)"/>
      <use xlink:href="#DejaVuSans-69" transform="translate(679.578125 0)"/>
      <use xlink:href="#DejaVuSans-65" transform="translate(707.361328 0)"/>
     </g>
    </g>
   </g>
   <g id="text_2">
    <g clip-path="url(#p813c014332)">
     <!-- tomholland2013 -->
     <g transform="translate(46.975514 506.483437) scale(0.09 -0.09)">
      <defs>
       <path id="DejaVuSans-74" d="M 1172 4494 
L 1172 3500 
L 2356 3500 
L 2356 3053 
L 1172 3053 
L 1172 1153 
Q 1172 725 1289 603 
Q 1406 481 1766 481 
L 2356 481 
L 2356 0 
L 1766 0 
Q 1100 0 847 248 
Q 594 497 594 1153 
L 594 3053 
L 172 3053 
L 172 3500 
L 594 3500 
L 594 4494 
L 1172 4494 
z
" transform="scale(0.015625)"/>
       <path id="DejaVuSans-6d" d="M 3328 2828 
Q 3544 3216 3844 3400 
Q 4144 3584 4550 3584 
Q 5097 3584 5394 3201 
Q 5691 2819 5691 2113 
L 5691 0 
L 5113 0 
L 5113 2094 
Q 5113 2597 4934 2840 
Q 4756 3084 4391 3084 
Q 3944 3084 3684 2787 
Q 3425 2491 3425 1978 
L 3425 0 
L 2847 0 
L 2847 2094 
Q 2847 2600 2669 2842 
Q 2491 3084 2119 3084 
Q 1678 3084 1418 2786 
Q 1159 2488 1159 1978 
L 1159 0 
L 581 0 
L 581 3500 
L 1159 3500 
L 1159 2956 
Q 1356 3278 1631 3431 
Q 1906 3584 2284 3584 
Q 2666 3584 2933 3390 
Q 3200 3197 3328 2828 
z
" transform="scale(0.015625)"/>
       <path id="DejaVuSans-68" d="M 3513 2113 
L 3513 0 
L 2938 0 
L 2938 2094 
Q 2938 2591 2744 2837 
Q 2550 3084 2163 3084 
Q 1697 3084 1428 2787 
Q 1159 2491 1159 1978 
L 1159 0 
L 581 0 
L 581 4863 
L 1159 4863 
L 1159 2956 
Q 1366 3272 1645 3428 
Q 1925 3584 2291 3584 
Q 2894 3584 3203 3211 
Q 3513 2838 3513 2113 
z
" transform="scale(0.015625)"/>
       <path id="DejaVuSans-6c" d="M 603 4863 
L 1178 4863 
L 1178 0 
L 603 0 
L 603 4863 
z
" transform="scale(0.015625)"/>
       <path id="DejaVuSans-6e" d="M 3513 2113 
L 3513 0 
L 2938 0 
L 2938 2094 
Q 2938 2591 2744 2837 
Q 2550 3084 2163 3084 
Q 1697 3084 1428 2787 
Q 1159 2491 1159 1978 
L 1159 0 
L 581 0 
L 581 3500 
L 1159 3500 
L 1159 2956 
Q 1366 3272 1645 3428 
Q 1925 3584 2291 3584 
Q 2894 3584 3203 3211 
Q 3513 2838 3513 2113 
z
" transform="scale(0.015625)"/>
       <path id="DejaVuSans-64" d="M 2906 2969 
L 2906 4863 
L 3481 4863 
L 3481 0 
L 2906 0 
L 2906 525 
Q 2725 213 2448 61 
Q 2172 -91 1784 -91 
Q 1150 -91 751 415 
Q 353 922 353 1747 
Q 353 2572 751 3078 
Q 1150 3584 1784 3584 
Q 2172 3584 2448 3432 
Q 2725 3281 2906 2969 
z
M 947 1747 
Q 947 1113 1208 752 
Q 1469 391 1925 391 
Q 2381 391 2643 752 
Q 2906 1113 2906 1747 
Q 2906 2381 2643 2742 
Q 2381 3103 1925 3103 
Q 1469 3103 1208 2742 
Q 947 2381 947 1747 
z
" transform="scale(0.015625)"/>
       <path id="DejaVuSans-32" d="M 1228 531 
L 3431 531 
L 3431 0 
L 469 0 
L 469 531 
Q 828 903 1448 1529 
Q 2069 2156 2228 2338 
Q 2531 2678 2651 2914 
Q 2772 3150 2772 3378 
Q 2772 3750 2511 3984 
Q 2250 4219 1831 4219 
Q 1534 4219 1204 4116 
Q 875 4013 500 3803 
L 500 4441 
Q 881 4594 1212 4672 
Q 1544 4750 1819 4750 
Q 2544 4750 2975 4387 
Q 3406 4025 3406 3419 
Q 3406 3131 3298 2873 
Q 3191 2616 2906 2266 
Q 2828 2175 2409 1742 
Q 1991 1309 1228 531 
z
" transform="scale(0.015625)"/>
       <path id="DejaVuSans-30" d="M 2034 4250 
Q 1547 4250 1301 3770 
Q 1056 3291 1056 2328 
Q 1056 1369 1301 889 
Q 1547 409 2034 409 
Q 2525 409 2770 889 
Q 3016 1369 3016 2328 
Q 3016 3291 2770 3770 
Q 2525 4250 2034 4250 
z
M 2034 4750 
Q 2819 4750 3233 4129 
Q 3647 3509 3647 2328 
Q 3647 1150 3233 529 
Q 2819 -91 2034 -91 
Q 1250 -91 836 529 
Q 422 1150 422 2328 
Q 422 3509 836 4129 
Q 1250 4750 2034 4750 
z
" transform="scale(0.015625)"/>
       <path id="DejaVuSans-31" d="M 794 531 
L 1825 531 
L 1825 4091 
L 703 3866 
L 703 4441 
L 1819 4666 
L 2450 4666 
L 2450 531 
L 3481 531 
L 3481 0 
L 794 0 
L 794 531 
z
" transform="scale(0.015625)"/>
       <path id="DejaVuSans-33" d="M 2597 2516 
Q 3050 2419 3304 2112 
Q 3559 1806 3559 1356 
Q 3559 666 3084 287 
Q 2609 -91 1734 -91 
Q 1441 -91 1130 -33 
Q 819 25 488 141 
L 488 750 
Q 750 597 1062 519 
Q 1375 441 1716 441 
Q 2309 441 2620 675 
Q 2931 909 2931 1356 
Q 2931 1769 2642 2001 
Q 2353 2234 1838 2234 
L 1294 2234 
L 1294 2753 
L 1863 2753 
Q 2328 2753 2575 2939 
Q 2822 3125 2822 3475 
Q 2822 3834 2567 4026 
Q 2313 4219 1838 4219 
Q 1578 4219 1281 4162 
Q 984 4106 628 3988 
L 628 4550 
Q 988 4650 1302 4700 
Q 1616 4750 1894 4750 
Q 2613 4750 3031 4423 
Q 3450 4097 3450 3541 
Q 3450 3153 3228 2886 
Q 3006 2619 2597 2516 
z
" transform="scale(0.015625)"/>
      </defs>
      <use xlink:href="#DejaVuSans-74"/>
      <use xlink:href="#DejaVuSans-6f" transform="translate(39.208984 0)"/>
      <use xlink:href="#DejaVuSans-6d" transform="translate(100.390625 0)"/>
      <use xlink:href="#DejaVuSans-68" transform="translate(197.802734 0)"/>
      <use xlink:href="#DejaVuSans-6f" transform="translate(261.181641 0)"/>
      <use xlink:href="#DejaVuSans-6c" transform="translate(322.363281 0)"/>
      <use xlink:href="#DejaVuSans-6c" transform="translate(350.146484 0)"/>
      <use xlink:href="#DejaVuSans-61" transform="translate(377.929688 0)"/>
      <use xlink:href="#DejaVuSans-6e" transform="translate(439.208984 0)"/>
      <use xlink:href="#DejaVuSans-64" transform="translate(502.587891 0)"/>
      <use xlink:href="#DejaVuSans-32" transform="translate(566.064453 0)"/>
      <use xlink:href="#DejaVuSans-30" transform="translate(629.6875 0)"/>
      <use xlink:href="#DejaVuSans-31" transform="translate(693.310547 0)"/>
      <use xlink:href="#DejaVuSans-33" transform="translate(756.933594 0)"/>
     </g>
    </g>
   </g>
   <g id="text_3">
    <g clip-path="url(#p813c014332)">
     <!-- kyliejenner -->
     <g transform="translate(59.183873 470.483437) scale(0.09 -0.09)">
      <defs>
       <path id="DejaVuSans-6b" d="M 581 4863 
L 1159 4863 
L 1159 1991 
L 2875 3500 
L 3609 3500 
L 1753 1863 
L 3688 0 
L 2938 0 
L 1159 1709 
L 1159 0 
L 581 0 
L 581 4863 
z
" transform="scale(0.015625)"/>
       <path id="DejaVuSans-79" d="M 2059 -325 
Q 1816 -950 1584 -1140 
Q 1353 -1331 966 -1331 
L 506 -1331 
L 506 -850 
L 844 -850 
Q 1081 -850 1212 -737 
Q 1344 -625 1503 -206 
L 1606 56 
L 191 3500 
L 800 3500 
L 1894 763 
L 2988 3500 
L 3597 3500 
L 2059 -325 
z
" transform="scale(0.015625)"/>
       <path id="DejaVuSans-6a" d="M 603 3500 
L 1178 3500 
L 1178 -63 
Q 1178 -731 923 -1031 
Q 669 -1331 103 -1331 
L -116 -1331 
L -116 -844 
L 38 -844 
Q 366 -844 484 -692 
Q 603 -541 603 -63 
L 603 3500 
z
M 603 4863 
L 1178 4863 
L 1178 4134 
L 603 4134 
L 603 4863 
z
" transform="scale(0.015625)"/>
      </defs>
      <use xlink:href="#DejaVuSans-6b"/>
      <use xlink:href="#DejaVuSans-79" transform="translate(54.285156 0)"/>
      <use xlink:href="#DejaVuSans-6c" transform="translate(113.464844 0)"/>
      <use xlink:href="#DejaVuSans-69" transform="translate(141.248047 0)"/>
      <use xlink:href="#DejaVuSans-65" transform="translate(169.03125 0)"/>
      <use xlink:href="#DejaVuSans-6a" transform="translate(230.554688 0)"/>
      <use xlink:href="#DejaVuSans-65" transform="translate(258.337891 0)"/>
      <use xlink:href="#DejaVuSans-6e" transform="translate(319.861328 0)"/>
      <use xlink:href="#DejaVuSans-6e" transform="translate(383.240234 0)"/>
      <use xlink:href="#DejaVuSans-65" transform="translate(446.619141 0)"/>
      <use xlink:href="#DejaVuSans-72" transform="translate(508.142578 0)"/>
     </g>
    </g>
   </g>
   <g id="text_4">
    <g clip-path="url(#p813c014332)">
     <!-- bellahadid -->
     <g transform="translate(60.443873 434.483438) scale(0.09 -0.09)">
      <defs>
       <path id="DejaVuSans-62" d="M 3116 1747 
Q 3116 2381 2855 2742 
Q 2594 3103 2138 3103 
Q 1681 3103 1420 2742 
Q 1159 2381 1159 1747 
Q 1159 1113 1420 752 
Q 1681 391 2138 391 
Q 2594 391 2855 752 
Q 3116 1113 3116 1747 
z
M 1159 2969 
Q 1341 3281 1617 3432 
Q 1894 3584 2278 3584 
Q 2916 3584 3314 3078 
Q 3713 2572 3713 1747 
Q 3713 922 3314 415 
Q 2916 -91 2278 -91 
Q 1894 -91 1617 61 
Q 1341 213 1159 525 
L 1159 0 
L 581 0 
L 581 4863 
L 1159 4863 
L 1159 2969 
z
" transform="scale(0.015625)"/>
      </defs>
      <use xlink:href="#DejaVuSans-62"/>
      <use xlink:href="#DejaVuSans-65" transform="translate(63.476562 0)"/>
      <use xlink:href="#DejaVuSans-6c" transform="translate(125 0)"/>
      <use xlink:href="#DejaVuSans-6c" transform="translate(152.783203 0)"/>
      <use xlink:href="#DejaVuSans-61" transform="translate(180.566406 0)"/>
      <use xlink:href="#DejaVuSans-68" transform="translate(241.845703 0)"/>
      <use xlink:href="#DejaVuSans-61" transform="translate(305.224609 0)"/>
      <use xlink:href="#DejaVuSans-64" transform="translate(366.503906 0)"/>
      <use xlink:href="#DejaVuSans-69" transform="translate(429.980469 0)"/>
      <use xlink:href="#DejaVuSans-64" transform="translate(457.763672 0)"/>
     </g>
    </g>
   </g>
   <g id="text_5">
    <g clip-path="url(#p813c014332)">
     <!-- lenamahfouf -->
     <g transform="translate(55.505826 398.483438) scale(0.09 -0.09)">
      <defs>
       <path id="DejaVuSans-66" d="M 2375 4863 
L 2375 4384 
L 1825 4384 
Q 1516 4384 1395 4259 
Q 1275 4134 1275 3809 
L 1275 3500 
L 2222 3500 
L 2222 3053 
L 1275 3053 
L 1275 0 
L 697 0 
L 697 3053 
L 147 3053 
L 147 3500 
L 697 3500 
L 697 3744 
Q 697 4328 969 4595 
Q 1241 4863 1831 4863 
L 2375 4863 
z
" transform="scale(0.015625)"/>
       <path id="DejaVuSans-75" d="M 544 1381 
L 544 3500 
L 1119 3500 
L 1119 1403 
Q 1119 906 1312 657 
Q 1506 409 1894 409 
Q 2359 409 2629 706 
Q 2900 1003 2900 1516 
L 2900 3500 
L 3475 3500 
L 3475 0 
L 2900 0 
L 2900 538 
Q 2691 219 2414 64 
Q 2138 -91 1772 -91 
Q 1169 -91 856 284 
Q 544 659 544 1381 
z
M 1991 3584 
L 1991 3584 
z
" transform="scale(0.015625)"/>
      </defs>
      <use xlink:href="#DejaVuSans-6c"/>
      <use xlink:href="#DejaVuSans-65" transform="translate(27.783203 0)"/>
      <use xlink:href="#DejaVuSans-6e" transform="translate(89.306641 0)"/>
      <use xlink:href="#DejaVuSans-61" transform="translate(152.685547 0)"/>
      <use xlink:href="#DejaVuSans-6d" transform="translate(213.964844 0)"/>
      <use xlink:href="#DejaVuSans-61" transform="translate(311.376953 0)"/>
      <use xlink:href="#DejaVuSans-68" transform="translate(372.65625 0)"/>
      <use xlink:href="#DejaVuSans-66" transform="translate(436.035156 0)"/>
      <use xlink:href="#DejaVuSans-6f" transform="translate(471.240234 0)"/>
      <use xlink:href="#DejaVuSans-75" transform="translate(532.421875 0)"/>
      <use xlink:href="#DejaVuSans-66" transform="translate(595.800781 0)"/>
     </g>
    </g>
   </g>
   <g id="text_6">
    <g clip-path="url(#p813c014332)">
     <!-- dualipa -->
     <g transform="translate(67.319733 362.483438) scale(0.09 -0.09)">
      <defs>
       <path id="DejaVuSans-70" d="M 1159 525 
L 1159 -1331 
L 581 -1331 
L 581 3500 
L 1159 3500 
L 1159 2969 
Q 1341 3281 1617 3432 
Q 1894 3584 2278 3584 
Q 2916 3584 3314 3078 
Q 3713 2572 3713 1747 
Q 3713 922 3314 415 
Q 2916 -91 2278 -91 
Q 1894 -91 1617 61 
Q 1341 213 1159 525 
z
M 3116 1747 
Q 3116 2381 2855 2742 
Q 2594 3103 2138 3103 
Q 1681 3103 1420 2742 
Q 1159 2381 1159 1747 
Q 1159 1113 1420 752 
Q 1681 391 2138 391 
Q 2594 391 2855 752 
Q 3116 1113 3116 1747 
z
" transform="scale(0.015625)"/>
      </defs>
      <use xlink:href="#DejaVuSans-64"/>
      <use xlink:href="#DejaVuSans-75" transform="translate(63.476562 0)"/>
      <use xlink:href="#DejaVuSans-61" transform="translate(126.855469 0)"/>
      <use xlink:href="#DejaVuSans-6c" transform="translate(188.134766 0)"/>
      <use xlink:href="#DejaVuSans-69" transform="translate(215.917969 0)"/>
      <use xlink:href="#DejaVuSans-70" transform="translate(243.701172 0)"/>
      <use xlink:href="#DejaVuSans-61" transform="translate(307.177734 0)"/>
     </g>
    </g>
   </g>
   <g id="text_7">
    <g clip-path="url(#p813c014332)">
     <!-- Nike -->
     <g transform="translate(770.270892 542.483438) scale(0.09 -0.09)">
      <defs>
       <path id="DejaVuSans-4e" d="M 628 4666 
L 1478 4666 
L 3547 763 
L 3547 4666 
L 4159 4666 
L 4159 0 
L 3309 0 
L 1241 3903 
L 1241 0 
L 628 0 
L 628 4666 
z
" transform="scale(0.015625)"/>
      </defs>
      <use xlink:href="#DejaVuSans-4e"/>
      <use xlink:href="#DejaVuSans-69" transform="translate(74.804688 0)"/>
      <use xlink:href="#DejaVuSans-6b" transform="translate(102.587891 0)"/>
      <use xlink:href="#DejaVuSans-65" transform="translate(156.873047 0)"/>
     </g>
    </g>
   </g>
   <g id="text_8">
    <g clip-path="url(#p813c014332)">
     <!-- Saint Laurent -->
     <g transform="translate(749.937924 506.483437) scale(0.09 -0.09)">
      <defs>
       <path id="DejaVuSans-53" d="M 3425 4513 
L 3425 3897 
Q 3066 4069 2747 4153 
Q 2428 4238 2131 4238 
Q 1616 4238 1336 4038 
Q 1056 3838 1056 3469 
Q 1056 3159 1242 3001 
Q 1428 2844 1947 2747 
L 2328 2669 
Q 3034 2534 3370 2195 
Q 3706 1856 3706 1288 
Q 3706 609 3251 259 
Q 2797 -91 1919 -91 
Q 1588 -91 1214 -16 
Q 841 59 441 206 
L 441 856 
Q 825 641 1194 531 
Q 1563 422 1919 422 
Q 2459 422 2753 634 
Q 3047 847 3047 1241 
Q 3047 1584 2836 1778 
Q 2625 1972 2144 2069 
L 1759 2144 
Q 1053 2284 737 2584 
Q 422 2884 422 3419 
Q 422 4038 858 4394 
Q 1294 4750 2059 4750 
Q 2388 4750 2728 4690 
Q 3069 4631 3425 4513 
z
" transform="scale(0.015625)"/>
       <path id="DejaVuSans-20" transform="scale(0.015625)"/>
       <path id="DejaVuSans-4c" d="M 628 4666 
L 1259 4666 
L 1259 531 
L 3531 531 
L 3531 0 
L 628 0 
L 628 4666 
z
" transform="scale(0.015625)"/>
      </defs>
      <use xlink:href="#DejaVuSans-53"/>
      <use xlink:href="#DejaVuSans-61" transform="translate(63.476562 0)"/>
      <use xlink:href="#DejaVuSans-69" transform="translate(124.755859 0)"/>
      <use xlink:href="#DejaVuSans-6e" transform="translate(152.539062 0)"/>
      <use xlink:href="#DejaVuSans-74" transform="translate(215.917969 0)"/>
      <use xlink:href="#DejaVuSans-20" transform="translate(255.126953 0)"/>
      <use xlink:href="#DejaVuSans-4c" transform="translate(286.914062 0)"/>
      <use xlink:href="#DejaVuSans-61" transform="translate(342.626953 0)"/>
      <use xlink:href="#DejaVuSans-75" transform="translate(403.90625 0)"/>
      <use xlink:href="#DejaVuSans-72" transform="translate(467.285156 0)"/>
      <use xlink:href="#DejaVuSans-65" transform="translate(506.148438 0)"/>
      <use xlink:href="#DejaVuSans-6e" transform="translate(567.671875 0)"/>
      <use xlink:href="#DejaVuSans-74" transform="translate(631.050781 0)"/>
     </g>
    </g>
   </g>
   <g id="text_9">
    <g clip-path="url(#p813c014332)">
     <!-- Coach -->
     <g transform="translate(766.119642 470.483437) scale(0.09 -0.09)">
      <defs>
       <path id="DejaVuSans-43" d="M 4122 4306 
L 4122 3641 
Q 3803 3938 3442 4084 
Q 3081 4231 2675 4231 
Q 1875 4231 1450 3742 
Q 1025 3253 1025 2328 
Q 1025 1406 1450 917 
Q 1875 428 2675 428 
Q 3081 428 3442 575 
Q 3803 722 4122 1019 
L 4122 359 
Q 3791 134 3420 21 
Q 3050 -91 2638 -91 
Q 1578 -91 968 557 
Q 359 1206 359 2328 
Q 359 3453 968 4101 
Q 1578 4750 2638 4750 
Q 3056 4750 3426 4639 
Q 3797 4528 4122 4306 
z
" transform="scale(0.015625)"/>
       <path id="DejaVuSans-63" d="M 3122 3366 
L 3122 2828 
Q 2878 2963 2633 3030 
Q 2388 3097 2138 3097 
Q 1578 3097 1268 2742 
Q 959 2388 959 1747 
Q 959 1106 1268 751 
Q 1578 397 2138 397 
Q 2388 397 2633 464 
Q 2878 531 3122 666 
L 3122 134 
Q 2881 22 2623 -34 
Q 2366 -91 2075 -91 
Q 1284 -91 818 406 
Q 353 903 353 1747 
Q 353 2603 823 3093 
Q 1294 3584 2113 3584 
Q 2378 3584 2631 3529 
Q 2884 3475 3122 3366 
z
" transform="scale(0.015625)"/>
      </defs>
      <use xlink:href="#DejaVuSans-43"/>
      <use xlink:href="#DejaVuSans-6f" transform="translate(69.824219 0)"/>
      <use xlink:href="#DejaVuSans-61" transform="translate(131.005859 0)"/>
      <use xlink:href="#DejaVuSans-63" transform="translate(192.285156 0)"/>
      <use xlink:href="#DejaVuSans-68" transform="translate(247.265625 0)"/>
     </g>
    </g>
   </g>
   <g id="text_10">
    <g clip-path="url(#p813c014332)">
     <!-- Miu Miu -->
     <g transform="translate(762.699642 434.483438) scale(0.09 -0.09)">
      <defs>
       <path id="DejaVuSans-4d" d="M 628 4666 
L 1569 4666 
L 2759 1491 
L 3956 4666 
L 4897 4666 
L 4897 0 
L 4281 0 
L 4281 4097 
L 3078 897 
L 2444 897 
L 1241 4097 
L 1241 0 
L 628 0 
L 628 4666 
z
" transform="scale(0.015625)"/>
      </defs>
      <use xlink:href="#DejaVuSans-4d"/>
      <use xlink:href="#DejaVuSans-69" transform="translate(86.279297 0)"/>
      <use xlink:href="#DejaVuSans-75" transform="translate(114.0625 0)"/>
      <use xlink:href="#DejaVuSans-20" transform="translate(177.441406 0)"/>
      <use xlink:href="#DejaVuSans-4d" transform="translate(209.228516 0)"/>
      <use xlink:href="#DejaVuSans-69" transform="translate(295.507812 0)"/>
      <use xlink:href="#DejaVuSans-75" transform="translate(323.291016 0)"/>
     </g>
    </g>
   </g>
   <g id="text_11">
    <g clip-path="url(#p813c014332)">
     <!-- Loewe -->
     <g transform="translate(765.699174 398.483438) scale(0.09 -0.09)">
      <defs>
       <path id="DejaVuSans-77" d="M 269 3500 
L 844 3500 
L 1563 769 
L 2278 3500 
L 2956 3500 
L 3675 769 
L 4391 3500 
L 4966 3500 
L 4050 0 
L 3372 0 
L 2619 2869 
L 1863 0 
L 1184 0 
L 269 3500 
z
" transform="scale(0.015625)"/>
      </defs>
      <use xlink:href="#DejaVuSans-4c"/>
      <use xlink:href="#DejaVuSans-6f" transform="translate(53.962891 0)"/>
      <use xlink:href="#DejaVuSans-65" transform="translate(115.144531 0)"/>
      <use xlink:href="#DejaVuSans-77" transform="translate(176.667969 0)"/>
      <use xlink:href="#DejaVuSans-65" transform="translate(258.455078 0)"/>
     </g>
    </g>
   </g>
   <g id="text_12">
    <g clip-path="url(#p813c014332)">
     <!-- Gucci -->
     <g transform="translate(767.561752 362.483438) scale(0.09 -0.09)">
      <defs>
       <path id="DejaVuSans-47" d="M 3809 666 
L 3809 1919 
L 2778 1919 
L 2778 2438 
L 4434 2438 
L 4434 434 
Q 4069 175 3628 42 
Q 3188 -91 2688 -91 
Q 1594 -91 976 548 
Q 359 1188 359 2328 
Q 359 3472 976 4111 
Q 1594 4750 2688 4750 
Q 3144 4750 3555 4637 
Q 3966 4525 4313 4306 
L 4313 3634 
Q 3963 3931 3569 4081 
Q 3175 4231 2741 4231 
Q 1884 4231 1454 3753 
Q 1025 3275 1025 2328 
Q 1025 1384 1454 906 
Q 1884 428 2741 428 
Q 3075 428 3337 486 
Q 3600 544 3809 666 
z
" transform="scale(0.015625)"/>
      </defs>
      <use xlink:href="#DejaVuSans-47"/>
      <use xlink:href="#DejaVuSans-75" transform="translate(77.490234 0)"/>
      <use xlink:href="#DejaVuSans-63" transform="translate(140.869141 0)"/>
      <use xlink:href="#DejaVuSans-63" transform="translate(195.849609 0)"/>
      <use xlink:href="#DejaVuSans-69" transform="translate(250.830078 0)"/>
     </g>
    </g>
   </g>
  </g>
 </g>
 <defs>
  <clipPath id="p813c014332">
   <rect x="10.8" y="10.8" width="842.4" height="554.4"/>
  </clipPath>
 </defs>
</svg>
