<?xml version="1.0" encoding="utf-8" standalone="no"?>
<!DOCTYPE svg PUBLIC "-//W3C//DTD SVG 1.1//EN"
  "http://www.w3.org/Graphics/SVG/1.1/DTD/svg11.dtd">
<svg xmlns:xlink="http://www.w3.org/1999/xlink" width="792pt" height="648pt" viewBox="0 0 792 648" xmlns="http://www.w3.org/2000/svg" version="1.1">
 <metadata>
  <rdf:RDF xmlns:dc="http://purl.org/dc/elements/1.1/" xmlns:cc="http://creativecommons.org/ns#" xmlns:rdf="http://www.w3.org/1999/02/22-rdf-syntax-ns#">
   <cc:Work>
    <dc:type rdf:resource="http://purl.org/dc/dcmitype/StillImage"/>
    <dc:date>2025-09-01T12:30:14.812114</dc:date>
    <dc:format>image/svg+xml</dc:format>
    <dc:creator>
     <cc:Agent>
      <dc:title>Matplotlib v3.10.5, https://matplotlib.org/</dc:title>
     </cc:Agent>
    </dc:creator>
   </cc:Work>
  </rdf:RDF>
 </metadata>
 <defs>
  <style type="text/css">*{stroke-linejoin: round; stroke-linecap: butt}</style>
 </defs>
 <g id="figure_1">
  <g id="patch_1">
   <path d="M 0 648 
L 792 648 
L 792 0 
L 0 0 
z
" style="fill: #ffffff"/>
  </g>
  <g id="axes_1">
   <g id="LineCollection_1">
    <path d="M 561.178364 259.755078 
L 451.436509 213.231896 
" clip-path="url(#p836d59b6a9)" style="fill: none; stroke: #000000; stroke-opacity: 0.3; stroke-width: 3.017449"/>
    <path d="M 561.178364 259.755078 
L 470.730657 300.056999 
" clip-path="url(#p836d59b6a9)" style="fill: none; stroke: #000000; stroke-opacity: 0.3; stroke-width: 4.377262"/>
    <path d="M 284.908009 217.93679 
L 287.45739 133.172477 
" clip-path="url(#p836d59b6a9)" style="fill: none; stroke: #000000; stroke-opacity: 0.3; stroke-width: 1.717697"/>
    <path d="M 284.908009 217.93679 
L 262.505137 273.854291 
" clip-path="url(#p836d59b6a9)" style="fill: none; stroke: #000000; stroke-opacity: 0.3; stroke-width: 4.87997"/>
    <path d="M 284.908009 217.93679 
L 182.966063 146.104747 
" clip-path="url(#p836d59b6a9)" style="fill: none; stroke: #000000; stroke-opacity: 0.3; stroke-width: 4.419022"/>
    <path d="M 284.908009 217.93679 
L 439.356531 370.117863 
" clip-path="url(#p836d59b6a9)" style="fill: none; stroke: #000000; stroke-opacity: 0.3; stroke-width: 2.178645"/>
    <path d="M 470.730657 300.056999 
L 451.436509 213.231896 
" clip-path="url(#p836d59b6a9)" style="fill: none; stroke: #000000; stroke-opacity: 0.3; stroke-width: 3.017449"/>
    <path d="M 287.45739 133.172477 
L 462.300688 80.732491 
" clip-path="url(#p836d59b6a9)" style="fill: none; stroke: #000000; stroke-opacity: 0.3; stroke-width: 1.990077"/>
    <path d="M 287.45739 133.172477 
L 182.966063 146.104747 
" clip-path="url(#p836d59b6a9)" style="fill: none; stroke: #000000; stroke-opacity: 0.3; stroke-width: 1.717697"/>
    <path d="M 287.45739 133.172477 
L 451.436509 213.231896 
" clip-path="url(#p836d59b6a9)" style="fill: none; stroke: #000000; stroke-opacity: 0.3; stroke-width: 1.990077"/>
    <path d="M 462.300688 80.732491 
L 451.436509 213.231896 
" clip-path="url(#p836d59b6a9)" style="fill: none; stroke: #000000; stroke-opacity: 0.3; stroke-width: 1.990077"/>
    <path d="M 182.966063 146.104747 
L 262.505137 273.854291 
" clip-path="url(#p836d59b6a9)" style="fill: none; stroke: #000000; stroke-opacity: 0.3; stroke-width: 2.701325"/>
    <path d="M 262.505137 273.854291 
L 186.879255 336.726828 
" clip-path="url(#p836d59b6a9)" style="fill: none; stroke: #000000; stroke-opacity: 0.3; stroke-width: 2.724535"/>
    <path d="M 262.505137 273.854291 
L 215.921756 124.875845 
" clip-path="url(#p836d59b6a9)" style="fill: none; stroke: #000000; stroke-opacity: 0.3; stroke-width: 2.273965"/>
    <path d="M 262.505137 273.854291 
L 188.762416 289.323194 
" clip-path="url(#p836d59b6a9)" style="fill: none; stroke: #000000; stroke-opacity: 0.3; stroke-width: 2.273965"/>
    <path d="M 262.505137 273.854291 
L 439.356531 370.117863 
" clip-path="url(#p836d59b6a9)" style="fill: none; stroke: #000000; stroke-opacity: 0.3; stroke-width: 2.178645"/>
    <path d="M 262.505137 273.854291 
L 313.297993 426.53096 
" clip-path="url(#p836d59b6a9)" style="fill: none; stroke: #000000; stroke-opacity: 0.3; stroke-width: 2.724535"/>
    <path d="M 333.450639 552.327777 
L 460.566668 564.466079 
" clip-path="url(#p836d59b6a9)" style="fill: none; stroke: #000000; stroke-opacity: 0.3; stroke-width: 1.601063"/>
    <path d="M 333.450639 552.327777 
L 294.548089 461.787649 
" clip-path="url(#p836d59b6a9)" style="fill: none; stroke: #000000; stroke-opacity: 0.3; stroke-width: 1.601063"/>
    <path d="M 460.566668 564.466079 
L 294.548089 461.787649 
" clip-path="url(#p836d59b6a9)" style="fill: none; stroke: #000000; stroke-opacity: 0.3; stroke-width: 1.601063"/>
    <path d="M 294.548089 461.787649 
L 186.879255 336.726828 
" clip-path="url(#p836d59b6a9)" style="fill: none; stroke: #000000; stroke-opacity: 0.3; stroke-width: 2.146543"/>
    <path d="M 294.548089 461.787649 
L 188.762416 289.323194 
" clip-path="url(#p836d59b6a9)" style="fill: none; stroke: #000000; stroke-opacity: 0.3; stroke-width: 2.146543"/>
    <path d="M 128.482554 314.834934 
L 297.885274 130.334223 
" clip-path="url(#p836d59b6a9)" style="fill: none; stroke: #000000; stroke-opacity: 0.3; stroke-width: 1.414537"/>
    <path d="M 128.482554 314.834934 
L 100.853571 241.341615 
" clip-path="url(#p836d59b6a9)" style="fill: none; stroke: #000000; stroke-opacity: 0.3; stroke-width: 1.414537"/>
    <path d="M 297.885274 130.334223 
L 100.853571 241.341615 
" clip-path="url(#p836d59b6a9)" style="fill: none; stroke: #000000; stroke-opacity: 0.3; stroke-width: 1.414537"/>
    <path d="M 461.333427 506.690214 
L 553.735471 491.134985 
" clip-path="url(#p836d59b6a9)" style="fill: none; stroke: #000000; stroke-opacity: 0.3; stroke-width: 1.867262"/>
    <path d="M 461.333427 506.690214 
L 385.7041 357.732538 
" clip-path="url(#p836d59b6a9)" style="fill: none; stroke: #000000; stroke-opacity: 0.3; stroke-width: 1.867262"/>
    <path d="M 553.735471 491.134985 
L 385.7041 357.732538 
" clip-path="url(#p836d59b6a9)" style="fill: none; stroke: #000000; stroke-opacity: 0.3; stroke-width: 1.867262"/>
    <path d="M 681.904856 355.192429 
L 558.51969 443.150535 
" clip-path="url(#p836d59b6a9)" style="fill: none; stroke: #000000; stroke-opacity: 0.3; stroke-width: 2.128152"/>
    <path d="M 681.904856 355.192429 
L 677.584679 454.418567 
" clip-path="url(#p836d59b6a9)" style="fill: none; stroke: #000000; stroke-opacity: 0.3; stroke-width: 2.128152"/>
    <path d="M 558.51969 443.150535 
L 677.584679 454.418567 
" clip-path="url(#p836d59b6a9)" style="fill: none; stroke: #000000; stroke-opacity: 0.3; stroke-width: 2.128152"/>
    <path d="M 186.879255 336.726828 
L 77.652893 202.827661 
" clip-path="url(#p836d59b6a9)" style="fill: none; stroke: #000000; stroke-opacity: 0.3; stroke-width: 2.113817"/>
    <path d="M 186.879255 336.726828 
L 179.452378 187.081074 
" clip-path="url(#p836d59b6a9)" style="fill: none; stroke: #000000; stroke-opacity: 0.3; stroke-width: 2.113817"/>
    <path d="M 186.879255 336.726828 
L 188.762416 289.323194 
" clip-path="url(#p836d59b6a9)" style="fill: none; stroke: #000000; stroke-opacity: 0.3; stroke-width: 2.146543"/>
    <path d="M 186.879255 336.726828 
L 313.297993 426.53096 
" clip-path="url(#p836d59b6a9)" style="fill: none; stroke: #000000; stroke-opacity: 0.3; stroke-width: 2.724535"/>
    <path d="M 77.652893 202.827661 
L 179.452378 187.081074 
" clip-path="url(#p836d59b6a9)" style="fill: none; stroke: #000000; stroke-opacity: 0.3; stroke-width: 2.113817"/>
    <path d="M 188.762416 289.323194 
L 215.921756 124.875845 
" clip-path="url(#p836d59b6a9)" style="fill: none; stroke: #000000; stroke-opacity: 0.3; stroke-width: 2.273965"/>
    <path d="M 313.297993 426.53096 
L 203.635823 451.258516 
" clip-path="url(#p836d59b6a9)" style="fill: none; stroke: #000000; stroke-opacity: 0.3; stroke-width: 2.678726"/>
    <path d="M 313.297993 426.53096 
L 398.086026 454.524336 
" clip-path="url(#p836d59b6a9)" style="fill: none; stroke: #000000; stroke-opacity: 0.3; stroke-width: 3.278416"/>
    <path d="M 313.297993 426.53096 
L 493.141222 550.310781 
" clip-path="url(#p836d59b6a9)" style="fill: none; stroke: #000000; stroke-opacity: 0.3; stroke-width: 2.856573"/>
    <path d="M 714.347107 201.032189 
L 672.205708 127.366099 
" clip-path="url(#p836d59b6a9)" style="fill: none; stroke: #000000; stroke-opacity: 0.3; stroke-width: 1.720494"/>
    <path d="M 714.347107 201.032189 
L 600.105594 105.367335 
" clip-path="url(#p836d59b6a9)" style="fill: none; stroke: #000000; stroke-opacity: 0.3; stroke-width: 1.720494"/>
    <path d="M 672.205708 127.366099 
L 600.105594 105.367335 
" clip-path="url(#p836d59b6a9)" style="fill: none; stroke: #000000; stroke-opacity: 0.3; stroke-width: 1.720494"/>
    <path d="M 142.841445 546.389512 
L 113.900189 502.235385 
" clip-path="url(#p836d59b6a9)" style="fill: none; stroke: #000000; stroke-opacity: 0.3; stroke-width: 3.555333"/>
    <path d="M 142.841445 546.389512 
L 200.237671 557.042311 
" clip-path="url(#p836d59b6a9)" style="fill: none; stroke: #000000; stroke-opacity: 0.3; stroke-width: 3.555333"/>
    <path d="M 113.900189 502.235385 
L 200.237671 557.042311 
" clip-path="url(#p836d59b6a9)" style="fill: none; stroke: #000000; stroke-opacity: 0.3; stroke-width: 3.555333"/>
    <path d="M 557.761855 198.105799 
L 451.30359 151.465921 
" clip-path="url(#p836d59b6a9)" style="fill: none; stroke: #000000; stroke-opacity: 0.3; stroke-width: 1.706706"/>
    <path d="M 557.761855 198.105799 
L 417.430395 79.677273 
" clip-path="url(#p836d59b6a9)" style="fill: none; stroke: #000000; stroke-opacity: 0.3; stroke-width: 1.706706"/>
    <path d="M 451.30359 151.465921 
L 417.430395 79.677273 
" clip-path="url(#p836d59b6a9)" style="fill: none; stroke: #000000; stroke-opacity: 0.3; stroke-width: 1.706706"/>
    <path d="M 439.356531 370.117863 
L 520.001507 584.222727 
" clip-path="url(#p836d59b6a9)" style="fill: none; stroke: #000000; stroke-opacity: 0.3; stroke-width: 1.494956"/>
    <path d="M 439.356531 370.117863 
L 662.852994 436.636519 
" clip-path="url(#p836d59b6a9)" style="fill: none; stroke: #000000; stroke-opacity: 0.3; stroke-width: 1.494956"/>
    <path d="M 203.635823 451.258516 
L 398.086026 454.524336 
" clip-path="url(#p836d59b6a9)" style="fill: none; stroke: #000000; stroke-opacity: 0.3; stroke-width: 1.550285"/>
    <path d="M 398.086026 454.524336 
L 493.141222 550.310781 
" clip-path="url(#p836d59b6a9)" style="fill: none; stroke: #000000; stroke-opacity: 0.3; stroke-width: 1.728132"/>
    <path d="M 520.001507 584.222727 
L 662.852994 436.636519 
" clip-path="url(#p836d59b6a9)" style="fill: none; stroke: #000000; stroke-opacity: 0.3; stroke-width: 1.494956"/>
   </g>
   <g id="PathCollection_1">
    <path d="M 561.178364 273.171486 
C 564.736437 273.171486 568.14926 271.757849 570.665197 269.241911 
C 573.181135 266.725973 574.594772 263.313151 574.594772 259.755078 
C 574.594772 256.197005 573.181135 252.784183 570.665197 250.268245 
C 568.14926 247.752308 564.736437 246.33867 561.178364 246.33867 
C 557.620291 246.33867 554.207469 247.752308 551.691531 250.268245 
C 549.175594 252.784183 547.761956 256.197005 547.761956 259.755078 
C 547.761956 263.313151 549.175594 266.725973 551.691531 269.241911 
C 554.207469 271.757849 557.620291 273.171486 561.178364 273.171486 
z
" clip-path="url(#p836d59b6a9)" style="fill: #2ca02c; stroke: #333333; stroke-width: 0.6"/>
    <path d="M 284.908009 232.428167 
C 288.751167 232.428167 292.437436 230.901264 295.154959 228.183741 
C 297.872483 225.466218 299.399385 221.779948 299.399385 217.93679 
C 299.399385 214.093632 297.872483 210.407363 295.154959 207.68984 
C 292.437436 204.972316 288.751167 203.445414 284.908009 203.445414 
C 281.064851 203.445414 277.378581 204.972316 274.661058 207.68984 
C 271.943535 210.407363 270.416632 214.093632 270.416632 217.93679 
C 270.416632 221.779948 271.943535 225.466218 274.661058 228.183741 
C 277.378581 230.901264 281.064851 232.428167 284.908009 232.428167 
z
" clip-path="url(#p836d59b6a9)" style="fill: #ff7f0e; stroke: #333333; stroke-width: 0.6"/>
    <path d="M 470.730657 313.473407 
C 474.28873 313.473407 477.701552 312.059769 480.21749 309.543832 
C 482.733427 307.027894 484.147065 303.615072 484.147065 300.056999 
C 484.147065 296.498926 482.733427 293.086103 480.21749 290.570166 
C 477.701552 288.054228 474.28873 286.640591 470.730657 286.640591 
C 467.172584 286.640591 463.759761 288.054228 461.243824 290.570166 
C 458.727886 293.086103 457.314249 296.498926 457.314249 300.056999 
C 457.314249 303.615072 458.727886 307.027894 461.243824 309.543832 
C 463.759761 312.059769 467.172584 313.473407 470.730657 313.473407 
z
" clip-path="url(#p836d59b6a9)" style="fill: #2ca02c; stroke: #333333; stroke-width: 0.6"/>
    <path d="M 287.45739 147.663853 
C 291.300548 147.663853 294.986817 146.136951 297.70434 143.419427 
C 300.421863 140.701904 301.948766 137.015635 301.948766 133.172477 
C 301.948766 129.329319 300.421863 125.643049 297.70434 122.925526 
C 294.986817 120.208003 291.300548 118.6811 287.45739 118.6811 
C 283.614232 118.6811 279.927962 120.208003 277.210439 122.925526 
C 274.492916 125.643049 272.966013 129.329319 272.966013 133.172477 
C 272.966013 137.015635 274.492916 140.701904 277.210439 143.419427 
C 279.927962 146.136951 283.614232 147.663853 287.45739 147.663853 
z
" clip-path="url(#p836d59b6a9)" style="fill: #ff7f0e; stroke: #333333; stroke-width: 0.6"/>
    <path d="M 462.300688 94.148899 
C 465.858761 94.148899 469.271583 92.735261 471.787521 90.219324 
C 474.303458 87.703386 475.717095 84.290564 475.717095 80.732491 
C 475.717095 77.174418 474.303458 73.761595 471.787521 71.245658 
C 469.271583 68.72972 465.858761 67.316083 462.300688 67.316083 
C 458.742615 67.316083 455.329792 68.72972 452.813855 71.245658 
C 450.297917 73.761595 448.88428 77.174418 448.88428 80.732491 
C 448.88428 84.290564 450.297917 87.703386 452.813855 90.219324 
C 455.329792 92.735261 458.742615 94.148899 462.300688 94.148899 
z
" clip-path="url(#p836d59b6a9)" style="fill: #2ca02c; stroke: #333333; stroke-width: 0.6"/>
    <path d="M 182.966063 160.068987 
C 186.669422 160.068987 190.221601 158.597627 192.840271 155.978956 
C 195.458942 153.360285 196.930303 149.808107 196.930303 146.104747 
C 196.930303 142.401388 195.458942 138.849209 192.840271 136.230539 
C 190.221601 133.611868 186.669422 132.140507 182.966063 132.140507 
C 179.262703 132.140507 175.710525 133.611868 173.091854 136.230539 
C 170.473183 138.849209 169.001823 142.401388 169.001823 146.104747 
C 169.001823 149.808107 170.473183 153.360285 173.091854 155.978956 
C 175.710525 158.597627 179.262703 160.068987 182.966063 160.068987 
z
" clip-path="url(#p836d59b6a9)" style="fill: #ff7f0e; stroke: #333333; stroke-width: 0.6"/>
    <path d="M 451.436509 227.723273 
C 455.279667 227.723273 458.965936 226.19637 461.68346 223.478847 
C 464.400983 220.761324 465.927886 217.075054 465.927886 213.231896 
C 465.927886 209.388738 464.400983 205.702468 461.68346 202.984945 
C 458.965936 200.267422 455.279667 198.740519 451.436509 198.740519 
C 447.593351 198.740519 443.907081 200.267422 441.189558 202.984945 
C 438.472035 205.702468 436.945132 209.388738 436.945132 213.231896 
C 436.945132 217.075054 438.472035 220.761324 441.189558 223.478847 
C 443.907081 226.19637 447.593351 227.723273 451.436509 227.723273 
z
" clip-path="url(#p836d59b6a9)" style="fill: #2ca02c; stroke: #333333; stroke-width: 0.6"/>
    <path d="M 262.505137 289.82301 
C 266.740091 289.82301 270.802163 288.140445 273.796727 285.14588 
C 276.791292 282.151316 278.473857 278.089245 278.473857 273.854291 
C 278.473857 269.619337 276.791292 265.557265 273.796727 262.562701 
C 270.802163 259.568136 266.740091 257.885571 262.505137 257.885571 
C 258.270183 257.885571 254.208112 259.568136 251.213548 262.562701 
C 248.218983 265.557265 246.536418 269.619337 246.536418 273.854291 
C 246.536418 278.089245 248.218983 282.151316 251.213548 285.14588 
C 254.208112 288.140445 258.270183 289.82301 262.505137 289.82301 
z
" clip-path="url(#p836d59b6a9)" style="fill: #ff7f0e; stroke: #333333; stroke-width: 0.6"/>
    <path d="M 333.450639 565.744185 
C 337.008712 565.744185 340.421535 564.330548 342.937472 561.81461 
C 345.45341 559.298673 346.867047 555.88585 346.867047 552.327777 
C 346.867047 548.769704 345.45341 545.356882 342.937472 542.840944 
C 340.421535 540.325007 337.008712 538.911369 333.450639 538.911369 
C 329.892566 538.911369 326.479744 540.325007 323.963806 542.840944 
C 321.447869 545.356882 320.034231 548.769704 320.034231 552.327777 
C 320.034231 555.88585 321.447869 559.298673 323.963806 561.81461 
C 326.479744 564.330548 329.892566 565.744185 333.450639 565.744185 
z
" clip-path="url(#p836d59b6a9)" style="fill: #1f77b4; stroke: #333333; stroke-width: 0.6"/>
    <path d="M 460.566668 577.882487 
C 464.124741 577.882487 467.537564 576.468849 470.053501 573.952912 
C 472.569439 571.436974 473.983076 568.024152 473.983076 564.466079 
C 473.983076 560.908006 472.569439 557.495183 470.053501 554.979246 
C 467.537564 552.463308 464.124741 551.049671 460.566668 551.049671 
C 457.008595 551.049671 453.595773 552.463308 451.079835 554.979246 
C 448.563898 557.495183 447.15026 560.908006 447.15026 564.466079 
C 447.15026 568.024152 448.563898 571.436974 451.079835 573.952912 
C 453.595773 576.468849 457.008595 577.882487 460.566668 577.882487 
z
" clip-path="url(#p836d59b6a9)" style="fill: #1f77b4; stroke: #333333; stroke-width: 0.6"/>
    <path d="M 294.548089 476.279025 
C 298.391247 476.279025 302.077517 474.752123 304.79504 472.034599 
C 307.512563 469.317076 309.039466 465.630807 309.039466 461.787649 
C 309.039466 457.944491 307.512563 454.258221 304.79504 451.540698 
C 302.077517 448.823175 298.391247 447.296272 294.548089 447.296272 
C 290.704931 447.296272 287.018661 448.823175 284.301138 451.540698 
C 281.583615 454.258221 280.056712 457.944491 280.056712 461.787649 
C 280.056712 465.630807 281.583615 469.317076 284.301138 472.034599 
C 287.018661 474.752123 290.704931 476.279025 294.548089 476.279025 
z
" clip-path="url(#p836d59b6a9)" style="fill: #1f77b4; stroke: #333333; stroke-width: 0.6"/>
    <path d="M 128.482554 328.251342 
C 132.040627 328.251342 135.45345 326.837704 137.969387 324.321767 
C 140.485325 321.805829 141.898962 318.393007 141.898962 314.834934 
C 141.898962 311.276861 140.485325 307.864038 137.969387 305.348101 
C 135.45345 302.832163 132.040627 301.418526 128.482554 301.418526 
C 124.924481 301.418526 121.511659 302.832163 118.995721 305.348101 
C 116.479784 307.864038 115.066146 311.276861 115.066146 314.834934 
C 115.066146 318.393007 116.479784 321.805829 118.995721 324.321767 
C 121.511659 326.837704 124.924481 328.251342 128.482554 328.251342 
z
" clip-path="url(#p836d59b6a9)" style="fill: #9467bd; stroke: #333333; stroke-width: 0.6"/>
    <path d="M 297.885274 143.750631 
C 301.443347 143.750631 304.856169 142.336993 307.372107 139.821056 
C 309.888044 137.305118 311.301682 133.892296 311.301682 130.334223 
C 311.301682 126.77615 309.888044 123.363327 307.372107 120.84739 
C 304.856169 118.331452 301.443347 116.917815 297.885274 116.917815 
C 294.327201 116.917815 290.914378 118.331452 288.398441 120.84739 
C 285.882503 123.363327 284.468866 126.77615 284.468866 130.334223 
C 284.468866 133.892296 285.882503 137.305118 288.398441 139.821056 
C 290.914378 142.336993 294.327201 143.750631 297.885274 143.750631 
z
" clip-path="url(#p836d59b6a9)" style="fill: #9467bd; stroke: #333333; stroke-width: 0.6"/>
    <path d="M 100.853571 254.758023 
C 104.411644 254.758023 107.824466 253.344386 110.340404 250.828448 
C 112.856341 248.312511 114.269978 244.899688 114.269978 241.341615 
C 114.269978 237.783542 112.856341 234.37072 110.340404 231.854782 
C 107.824466 229.338845 104.411644 227.925207 100.853571 227.925207 
C 97.295498 227.925207 93.882675 229.338845 91.366738 231.854782 
C 88.8508 234.37072 87.437163 237.783542 87.437163 241.341615 
C 87.437163 244.899688 88.8508 248.312511 91.366738 250.828448 
C 93.882675 253.344386 97.295498 254.758023 100.853571 254.758023 
z
" clip-path="url(#p836d59b6a9)" style="fill: #9467bd; stroke: #333333; stroke-width: 0.6"/>
    <path d="M 461.333427 520.106622 
C 464.8915 520.106622 468.304322 518.692985 470.82026 516.177047 
C 473.336197 513.66111 474.749835 510.248287 474.749835 506.690214 
C 474.749835 503.132141 473.336197 499.719319 470.82026 497.203381 
C 468.304322 494.687444 464.8915 493.273806 461.333427 493.273806 
C 457.775354 493.273806 454.362531 494.687444 451.846594 497.203381 
C 449.330656 499.719319 447.917019 503.132141 447.917019 506.690214 
C 447.917019 510.248287 449.330656 513.66111 451.846594 516.177047 
C 454.362531 518.692985 457.775354 520.106622 461.333427 520.106622 
z
" clip-path="url(#p836d59b6a9)" style="fill: #8c564b; stroke: #333333; stroke-width: 0.6"/>
    <path d="M 553.735471 504.551393 
C 557.293544 504.551393 560.706366 503.137755 563.222304 500.621818 
C 565.738241 498.10588 567.151878 494.693058 567.151878 491.134985 
C 567.151878 487.576912 565.738241 484.164089 563.222304 481.648152 
C 560.706366 479.132214 557.293544 477.718577 553.735471 477.718577 
C 550.177398 477.718577 546.764575 479.132214 544.248638 481.648152 
C 541.7327 484.164089 540.319063 487.576912 540.319063 491.134985 
C 540.319063 494.693058 541.7327 498.10588 544.248638 500.621818 
C 546.764575 503.137755 550.177398 504.551393 553.735471 504.551393 
z
" clip-path="url(#p836d59b6a9)" style="fill: #8c564b; stroke: #333333; stroke-width: 0.6"/>
    <path d="M 385.7041 371.148945 
C 389.262173 371.148945 392.674996 369.735308 395.190933 367.219371 
C 397.706871 364.703433 399.120508 361.290611 399.120508 357.732538 
C 399.120508 354.174465 397.706871 350.761642 395.190933 348.245705 
C 392.674996 345.729767 389.262173 344.31613 385.7041 344.31613 
C 382.146027 344.31613 378.733205 345.729767 376.217267 348.245705 
C 373.70133 350.761642 372.287692 354.174465 372.287692 357.732538 
C 372.287692 361.290611 373.70133 364.703433 376.217267 367.219371 
C 378.733205 369.735308 382.146027 371.148945 385.7041 371.148945 
z
" clip-path="url(#p836d59b6a9)" style="fill: #8c564b; stroke: #333333; stroke-width: 0.6"/>
    <path d="M 681.904856 368.608836 
C 685.462929 368.608836 688.875752 367.195199 691.391689 364.679262 
C 693.907627 362.163324 695.321264 358.750502 695.321264 355.192429 
C 695.321264 351.634356 693.907627 348.221533 691.391689 345.705596 
C 688.875752 343.189658 685.462929 341.776021 681.904856 341.776021 
C 678.346783 341.776021 674.933961 343.189658 672.418023 345.705596 
C 669.902086 348.221533 668.488448 351.634356 668.488448 355.192429 
C 668.488448 358.750502 669.902086 362.163324 672.418023 364.679262 
C 674.933961 367.195199 678.346783 368.608836 681.904856 368.608836 
z
" clip-path="url(#p836d59b6a9)" style="fill: #e377c2; stroke: #333333; stroke-width: 0.6"/>
    <path d="M 558.51969 456.566943 
C 562.077763 456.566943 565.490586 455.153305 568.006523 452.637368 
C 570.522461 450.12143 571.936098 446.708608 571.936098 443.150535 
C 571.936098 439.592462 570.522461 436.17964 568.006523 433.663702 
C 565.490586 431.147764 562.077763 429.734127 558.51969 429.734127 
C 554.961617 429.734127 551.548795 431.147764 549.032857 433.663702 
C 546.51692 436.17964 545.103283 439.592462 545.103283 443.150535 
C 545.103283 446.708608 546.51692 450.12143 549.032857 452.637368 
C 551.548795 455.153305 554.961617 456.566943 558.51969 456.566943 
z
" clip-path="url(#p836d59b6a9)" style="fill: #e377c2; stroke: #333333; stroke-width: 0.6"/>
    <path d="M 677.584679 467.834975 
C 681.142752 467.834975 684.555575 466.421337 687.071512 463.9054 
C 689.58745 461.389462 691.001087 457.97664 691.001087 454.418567 
C 691.001087 450.860494 689.58745 447.447671 687.071512 444.931734 
C 684.555575 442.415796 681.142752 441.002159 677.584679 441.002159 
C 674.026606 441.002159 670.613784 442.415796 668.097846 444.931734 
C 665.581909 447.447671 664.168271 450.860494 664.168271 454.418567 
C 664.168271 457.97664 665.581909 461.389462 668.097846 463.9054 
C 670.613784 466.421337 674.026606 467.834975 677.584679 467.834975 
z
" clip-path="url(#p836d59b6a9)" style="fill: #e377c2; stroke: #333333; stroke-width: 0.6"/>
    <path d="M 186.879255 352.218761 
C 190.987763 352.218761 194.928551 350.586433 197.833706 347.681279 
C 200.73886 344.776125 202.371188 340.835337 202.371188 336.726828 
C 202.371188 332.618319 200.73886 328.677531 197.833706 325.772377 
C 194.928551 322.867222 190.987763 321.234894 186.879255 321.234894 
C 182.770746 321.234894 178.829958 322.867222 175.924803 325.772377 
C 173.019649 328.677531 171.387321 332.618319 171.387321 336.726828 
C 171.387321 340.835337 173.019649 344.776125 175.924803 347.681279 
C 178.829958 350.586433 182.770746 352.218761 186.879255 352.218761 
z
" clip-path="url(#p836d59b6a9)" style="fill: #1f77b4; stroke: #333333; stroke-width: 0.6"/>
    <path d="M 77.652893 216.244069 
C 81.210966 216.244069 84.623788 214.830431 87.139726 212.314494 
C 89.655663 209.798556 91.0693 206.385734 91.0693 202.827661 
C 91.0693 199.269588 89.655663 195.856765 87.139726 193.340828 
C 84.623788 190.82489 81.210966 189.411253 77.652893 189.411253 
C 74.09482 189.411253 70.681997 190.82489 68.16606 193.340828 
C 65.650122 195.856765 64.236485 199.269588 64.236485 202.827661 
C 64.236485 206.385734 65.650122 209.798556 68.16606 212.314494 
C 70.681997 214.830431 74.09482 216.244069 77.652893 216.244069 
z
" clip-path="url(#p836d59b6a9)" style="fill: #1f77b4; stroke: #333333; stroke-width: 0.6"/>
    <path d="M 179.452378 200.497482 
C 183.010451 200.497482 186.423273 199.083845 188.939211 196.567907 
C 191.455148 194.05197 192.868786 190.639147 192.868786 187.081074 
C 192.868786 183.523001 191.455148 180.110179 188.939211 177.594241 
C 186.423273 175.078304 183.010451 173.664666 179.452378 173.664666 
C 175.894305 173.664666 172.481482 175.078304 169.965545 177.594241 
C 167.449607 180.110179 166.03597 183.523001 166.03597 187.081074 
C 166.03597 190.639147 167.449607 194.05197 169.965545 196.567907 
C 172.481482 199.083845 175.894305 200.497482 179.452378 200.497482 
z
" clip-path="url(#p836d59b6a9)" style="fill: #1f77b4; stroke: #333333; stroke-width: 0.6"/>
    <path d="M 188.762416 303.81457 
C 192.605574 303.81457 196.291843 302.287667 199.009366 299.570144 
C 201.72689 296.852621 203.253792 293.166352 203.253792 289.323194 
C 203.253792 285.480036 201.72689 281.793766 199.009366 279.076243 
C 196.291843 276.35872 192.605574 274.831817 188.762416 274.831817 
C 184.919258 274.831817 181.232988 276.35872 178.515465 279.076243 
C 175.797942 281.793766 174.271039 285.480036 174.271039 289.323194 
C 174.271039 293.166352 175.797942 296.852621 178.515465 299.570144 
C 181.232988 302.287667 184.919258 303.81457 188.762416 303.81457 
z
" clip-path="url(#p836d59b6a9)" style="fill: #1f77b4; stroke: #333333; stroke-width: 0.6"/>
    <path d="M 313.297993 441.53096 
C 317.27604 441.53096 321.091691 439.950466 323.904595 437.137562 
C 326.717499 434.324658 328.297993 430.509007 328.297993 426.53096 
C 328.297993 422.552914 326.717499 418.737262 323.904595 415.924358 
C 321.091691 413.111455 317.27604 411.53096 313.297993 411.53096 
C 309.319947 411.53096 305.504295 413.111455 302.691392 415.924358 
C 299.878488 418.737262 298.297993 422.552914 298.297993 426.53096 
C 298.297993 430.509007 299.878488 434.324658 302.691392 437.137562 
C 305.504295 439.950466 309.319947 441.53096 313.297993 441.53096 
z
" clip-path="url(#p836d59b6a9)" style="fill: #d62728; stroke: #333333; stroke-width: 0.6"/>
    <path d="M 714.347107 214.448596 
C 717.90518 214.448596 721.318003 213.034959 723.83394 210.519022 
C 726.349878 208.003084 727.763515 204.590262 727.763515 201.032189 
C 727.763515 197.474116 726.349878 194.061293 723.83394 191.545356 
C 721.318003 189.029418 717.90518 187.615781 714.347107 187.615781 
C 710.789034 187.615781 707.376212 189.029418 704.860274 191.545356 
C 702.344337 194.061293 700.9307 197.474116 700.9307 201.032189 
C 700.9307 204.590262 702.344337 208.003084 704.860274 210.519022 
C 707.376212 213.034959 710.789034 214.448596 714.347107 214.448596 
z
" clip-path="url(#p836d59b6a9)" style="fill: #7f7f7f; stroke: #333333; stroke-width: 0.6"/>
    <path d="M 672.205708 140.782506 
C 675.763781 140.782506 679.176604 139.368869 681.692541 136.852932 
C 684.208479 134.336994 685.622116 130.924172 685.622116 127.366099 
C 685.622116 123.808026 684.208479 120.395203 681.692541 117.879266 
C 679.176604 115.363328 675.763781 113.949691 672.205708 113.949691 
C 668.647635 113.949691 665.234813 115.363328 662.718875 117.879266 
C 660.202938 120.395203 658.7893 123.808026 658.7893 127.366099 
C 658.7893 130.924172 660.202938 134.336994 662.718875 136.852932 
C 665.234813 139.368869 668.647635 140.782506 672.205708 140.782506 
z
" clip-path="url(#p836d59b6a9)" style="fill: #7f7f7f; stroke: #333333; stroke-width: 0.6"/>
    <path d="M 600.105594 118.783743 
C 603.663667 118.783743 607.076489 117.370105 609.592427 114.854168 
C 612.108364 112.33823 613.522002 108.925408 613.522002 105.367335 
C 613.522002 101.809262 612.108364 98.396439 609.592427 95.880502 
C 607.076489 93.364564 603.663667 91.950927 600.105594 91.950927 
C 596.547521 91.950927 593.134698 93.364564 590.618761 95.880502 
C 588.102823 98.396439 586.689186 101.809262 586.689186 105.367335 
C 586.689186 108.925408 588.102823 112.33823 590.618761 114.854168 
C 593.134698 117.370105 596.547521 118.783743 600.105594 118.783743 
z
" clip-path="url(#p836d59b6a9)" style="fill: #7f7f7f; stroke: #333333; stroke-width: 0.6"/>
    <path d="M 142.841445 559.80592 
C 146.399518 559.80592 149.81234 558.392283 152.328278 555.876345 
C 154.844215 553.360408 156.257853 549.947585 156.257853 546.389512 
C 156.257853 542.831439 154.844215 539.418617 152.328278 536.902679 
C 149.81234 534.386742 146.399518 532.973104 142.841445 532.973104 
C 139.283372 532.973104 135.870549 534.386742 133.354612 536.902679 
C 130.838674 539.418617 129.425037 542.831439 129.425037 546.389512 
C 129.425037 549.947585 130.838674 553.360408 133.354612 555.876345 
C 135.870549 558.392283 139.283372 559.80592 142.841445 559.80592 
z
" clip-path="url(#p836d59b6a9)" style="fill: #bcbd22; stroke: #333333; stroke-width: 0.6"/>
    <path d="M 113.900189 515.651793 
C 117.458262 515.651793 120.871084 514.238156 123.387022 511.722218 
C 125.902959 509.206281 127.316597 505.793458 127.316597 502.235385 
C 127.316597 498.677312 125.902959 495.26449 123.387022 492.748552 
C 120.871084 490.232615 117.458262 488.818977 113.900189 488.818977 
C 110.342116 488.818977 106.929293 490.232615 104.413356 492.748552 
C 101.897418 495.26449 100.483781 498.677312 100.483781 502.235385 
C 100.483781 505.793458 101.897418 509.206281 104.413356 511.722218 
C 106.929293 514.238156 110.342116 515.651793 113.900189 515.651793 
z
" clip-path="url(#p836d59b6a9)" style="fill: #bcbd22; stroke: #333333; stroke-width: 0.6"/>
    <path d="M 200.237671 570.458719 
C 203.795744 570.458719 207.208566 569.045081 209.724504 566.529144 
C 212.240441 564.013206 213.654079 560.600384 213.654079 557.042311 
C 213.654079 553.484238 212.240441 550.071416 209.724504 547.555478 
C 207.208566 545.03954 203.795744 543.625903 200.237671 543.625903 
C 196.679598 543.625903 193.266776 545.03954 190.750838 547.555478 
C 188.2349 550.071416 186.821263 553.484238 186.821263 557.042311 
C 186.821263 560.600384 188.2349 564.013206 190.750838 566.529144 
C 193.266776 569.045081 196.679598 570.458719 200.237671 570.458719 
z
" clip-path="url(#p836d59b6a9)" style="fill: #bcbd22; stroke: #333333; stroke-width: 0.6"/>
    <path d="M 557.761855 211.522207 
C 561.319928 211.522207 564.732751 210.10857 567.248688 207.592632 
C 569.764626 205.076695 571.178263 201.663872 571.178263 198.105799 
C 571.178263 194.547726 569.764626 191.134904 567.248688 188.618966 
C 564.732751 186.103029 561.319928 184.689391 557.761855 184.689391 
C 554.203783 184.689391 550.79096 186.103029 548.275023 188.618966 
C 545.759085 191.134904 544.345448 194.547726 544.345448 198.105799 
C 544.345448 201.663872 545.759085 205.076695 548.275023 207.592632 
C 550.79096 210.10857 554.203783 211.522207 557.761855 211.522207 
z
" clip-path="url(#p836d59b6a9)" style="fill: #17becf; stroke: #333333; stroke-width: 0.6"/>
    <path d="M 451.30359 164.882329 
C 454.861662 164.882329 458.274485 163.468692 460.790423 160.952754 
C 463.30636 158.436817 464.719997 155.023994 464.719997 151.465921 
C 464.719997 147.907848 463.30636 144.495026 460.790423 141.979088 
C 458.274485 139.463151 454.861662 138.049513 451.30359 138.049513 
C 447.745517 138.049513 444.332694 139.463151 441.816757 141.979088 
C 439.300819 144.495026 437.887182 147.907848 437.887182 151.465921 
C 437.887182 155.023994 439.300819 158.436817 441.816757 160.952754 
C 444.332694 163.468692 447.745517 164.882329 451.30359 164.882329 
z
" clip-path="url(#p836d59b6a9)" style="fill: #17becf; stroke: #333333; stroke-width: 0.6"/>
    <path d="M 417.430395 93.093681 
C 420.988468 93.093681 424.401291 91.680043 426.917228 89.164106 
C 429.433166 86.648168 430.846803 83.235346 430.846803 79.677273 
C 430.846803 76.1192 429.433166 72.706377 426.917228 70.19044 
C 424.401291 67.674502 420.988468 66.260865 417.430395 66.260865 
C 413.872322 66.260865 410.4595 67.674502 407.943562 70.19044 
C 405.427625 72.706377 404.013987 76.1192 404.013987 79.677273 
C 404.013987 83.235346 405.427625 86.648168 407.943562 89.164106 
C 410.4595 91.680043 413.872322 93.093681 417.430395 93.093681 
z
" clip-path="url(#p836d59b6a9)" style="fill: #17becf; stroke: #333333; stroke-width: 0.6"/>
    <path d="M 215.921756 138.292253 
C 219.479829 138.292253 222.892651 136.878616 225.408589 134.362678 
C 227.924526 131.846741 229.338164 128.433918 229.338164 124.875845 
C 229.338164 121.317773 227.924526 117.90495 225.408589 115.389013 
C 222.892651 112.873075 219.479829 111.459438 215.921756 111.459438 
C 212.363683 111.459438 208.95086 112.873075 206.434923 115.389013 
C 203.918985 117.90495 202.505348 121.317773 202.505348 124.875845 
C 202.505348 128.433918 203.918985 131.846741 206.434923 134.362678 
C 208.95086 136.878616 212.363683 138.292253 215.921756 138.292253 
z
" clip-path="url(#p836d59b6a9)" style="fill: #1f77b4; stroke: #333333; stroke-width: 0.6"/>
    <path d="M 439.356531 384.60924 
C 443.199689 384.60924 446.885959 383.082337 449.603482 380.364814 
C 452.321005 377.647291 453.847908 373.961022 453.847908 370.117863 
C 453.847908 366.274705 452.321005 362.588436 449.603482 359.870913 
C 446.885959 357.15339 443.199689 355.626487 439.356531 355.626487 
C 435.513373 355.626487 431.827104 357.15339 429.10958 359.870913 
C 426.392057 362.588436 424.865154 366.274705 424.865154 370.117863 
C 424.865154 373.961022 426.392057 377.647291 429.10958 380.364814 
C 431.827104 383.082337 435.513373 384.60924 439.356531 384.60924 
z
" clip-path="url(#p836d59b6a9)" style="fill: #ff7f0e; stroke: #333333; stroke-width: 0.6"/>
    <path d="M 203.635823 464.674924 
C 207.193896 464.674924 210.606719 463.261286 213.122656 460.745349 
C 215.638594 458.229411 217.052231 454.816589 217.052231 451.258516 
C 217.052231 447.700443 215.638594 444.28762 213.122656 441.771683 
C 210.606719 439.255745 207.193896 437.842108 203.635823 437.842108 
C 200.07775 437.842108 196.664928 439.255745 194.14899 441.771683 
C 191.633053 444.28762 190.219415 447.700443 190.219415 451.258516 
C 190.219415 454.816589 191.633053 458.229411 194.14899 460.745349 
C 196.664928 463.261286 200.07775 464.674924 203.635823 464.674924 
z
" clip-path="url(#p836d59b6a9)" style="fill: #d62728; stroke: #333333; stroke-width: 0.6"/>
    <path d="M 398.086026 468.488576 
C 401.789386 468.488576 405.341564 467.017216 407.960235 464.398545 
C 410.578906 461.779874 412.050266 458.227696 412.050266 454.524336 
C 412.050266 450.820976 410.578906 447.268798 407.960235 444.650127 
C 405.341564 442.031456 401.789386 440.560096 398.086026 440.560096 
C 394.382666 440.560096 390.830488 442.031456 388.211817 444.650127 
C 385.593146 447.268798 384.121786 450.820976 384.121786 454.524336 
C 384.121786 458.227696 385.593146 461.779874 388.211817 464.398545 
C 390.830488 467.017216 394.382666 468.488576 398.086026 468.488576 
z
" clip-path="url(#p836d59b6a9)" style="fill: #d62728; stroke: #333333; stroke-width: 0.6"/>
    <path d="M 493.141222 563.727189 
C 496.699295 563.727189 500.112117 562.313552 502.628055 559.797614 
C 505.143992 557.281677 506.55763 553.868854 506.55763 550.310781 
C 506.55763 546.752708 505.143992 543.339886 502.628055 540.823948 
C 500.112117 538.308011 496.699295 536.894374 493.141222 536.894374 
C 489.583149 536.894374 486.170326 538.308011 483.654389 540.823948 
C 481.138451 543.339886 479.724814 546.752708 479.724814 550.310781 
C 479.724814 553.868854 481.138451 557.281677 483.654389 559.797614 
C 486.170326 562.313552 489.583149 563.727189 493.141222 563.727189 
z
" clip-path="url(#p836d59b6a9)" style="fill: #d62728; stroke: #333333; stroke-width: 0.6"/>
    <path d="M 520.001507 597.639135 
C 523.55958 597.639135 526.972402 596.225498 529.48834 593.70956 
C 532.004277 591.193623 533.417915 587.7808 533.417915 584.222727 
C 533.417915 580.664654 532.004277 577.251832 529.48834 574.735894 
C 526.972402 572.219957 523.55958 570.806319 520.001507 570.806319 
C 516.443434 570.806319 513.030611 572.219957 510.514674 574.735894 
C 507.998736 577.251832 506.585099 580.664654 506.585099 584.222727 
C 506.585099 587.7808 507.998736 591.193623 510.514674 593.70956 
C 513.030611 596.225498 516.443434 597.639135 520.001507 597.639135 
z
" clip-path="url(#p836d59b6a9)" style="fill: #ff7f0e; stroke: #333333; stroke-width: 0.6"/>
    <path d="M 662.852994 450.052927 
C 666.411067 450.052927 669.82389 448.63929 672.339827 446.123352 
C 674.855765 443.607415 676.269402 440.194592 676.269402 436.636519 
C 676.269402 433.078446 674.855765 429.665624 672.339827 427.149686 
C 669.82389 424.633749 666.411067 423.220111 662.852994 423.220111 
C 659.294921 423.220111 655.882099 424.633749 653.366161 427.149686 
C 650.850224 429.665624 649.436586 433.078446 649.436586 436.636519 
C 649.436586 440.194592 650.850224 443.607415 653.366161 446.123352 
C 655.882099 448.63929 659.294921 450.052927 662.852994 450.052927 
z
" clip-path="url(#p836d59b6a9)" style="fill: #ff7f0e; stroke: #333333; stroke-width: 0.6"/>
   </g>
   <g id="text_1">
    <g clip-path="url(#p836d59b6a9)">
     <!-- COS -->
     <g transform="translate(551.636958 262.238516) scale(0.09 -0.09)">
      <defs>
       <path id="DejaVuSans-43" d="M 4122 4306 
L 4122 3641 
Q 3803 3938 3442 4084 
Q 3081 4231 2675 4231 
Q 1875 4231 1450 3742 
Q 1025 3253 1025 2328 
Q 1025 1406 1450 917 
Q 1875 428 2675 428 
Q 3081 428 3442 575 
Q 3803 722 4122 1019 
L 4122 359 
Q 3791 134 3420 21 
Q 3050 -91 2638 -91 
Q 1578 -91 968 557 
Q 359 1206 359 2328 
Q 359 3453 968 4101 
Q 1578 4750 2638 4750 
Q 3056 4750 3426 4639 
Q 3797 4528 4122 4306 
z
" transform="scale(0.015625)"/>
       <path id="DejaVuSans-4f" d="M 2522 4238 
Q 1834 4238 1429 3725 
Q 1025 3213 1025 2328 
Q 1025 1447 1429 934 
Q 1834 422 2522 422 
Q 3209 422 3611 934 
Q 4013 1447 4013 2328 
Q 4013 3213 3611 3725 
Q 3209 4238 2522 4238 
z
M 2522 4750 
Q 3503 4750 4090 4092 
Q 4678 3434 4678 2328 
Q 4678 1225 4090 567 
Q 3503 -91 2522 -91 
Q 1538 -91 948 565 
Q 359 1222 359 2328 
Q 359 3434 948 4092 
Q 1538 4750 2522 4750 
z
" transform="scale(0.015625)"/>
       <path id="DejaVuSans-53" d="M 3425 4513 
L 3425 3897 
Q 3066 4069 2747 4153 
Q 2428 4238 2131 4238 
Q 1616 4238 1336 4038 
Q 1056 3838 1056 3469 
Q 1056 3159 1242 3001 
Q 1428 2844 1947 2747 
L 2328 2669 
Q 3034 2534 3370 2195 
Q 3706 1856 3706 1288 
Q 3706 609 3251 259 
Q 2797 -91 1919 -91 
Q 1588 -91 1214 -16 
Q 841 59 441 206 
L 441 856 
Q 825 641 1194 531 
Q 1563 422 1919 422 
Q 2459 422 2753 634 
Q 3047 847 3047 1241 
Q 3047 1584 2836 1778 
Q 2625 1972 2144 2069 
L 1759 2144 
Q 1053 2284 737 2584 
Q 422 2884 422 3419 
Q 422 4038 858 4394 
Q 1294 4750 2059 4750 
Q 2388 4750 2728 4690 
Q 3069 4631 3425 4513 
z
" transform="scale(0.015625)"/>
      </defs>
      <use xlink:href="#DejaVuSans-43"/>
      <use xlink:href="#DejaVuSans-4f" transform="translate(69.824219 0)"/>
      <use xlink:href="#DejaVuSans-53" transform="translate(148.535156 0)"/>
     </g>
    </g>
   </g>
   <g id="text_2">
    <g clip-path="url(#p836d59b6a9)">
     <!-- Ganni -->
     <g transform="translate(271.709649 220.420228) scale(0.09 -0.09)">
      <defs>
       <path id="DejaVuSans-47" d="M 3809 666 
L 3809 1919 
L 2778 1919 
L 2778 2438 
L 4434 2438 
L 4434 434 
Q 4069 175 3628 42 
Q 3188 -91 2688 -91 
Q 1594 -91 976 548 
Q 359 1188 359 2328 
Q 359 3472 976 4111 
Q 1594 4750 2688 4750 
Q 3144 4750 3555 4637 
Q 3966 4525 4313 4306 
L 4313 3634 
Q 3963 3931 3569 4081 
Q 3175 4231 2741 4231 
Q 1884 4231 1454 3753 
Q 1025 3275 1025 2328 
Q 1025 1384 1454 906 
Q 1884 428 2741 428 
Q 3075 428 3337 486 
Q 3600 544 3809 666 
z
" transform="scale(0.015625)"/>
       <path id="DejaVuSans-61" d="M 2194 1759 
Q 1497 1759 1228 1600 
Q 959 1441 959 1056 
Q 959 750 1161 570 
Q 1363 391 1709 391 
Q 2188 391 2477 730 
Q 2766 1069 2766 1631 
L 2766 1759 
L 2194 1759 
z
M 3341 1997 
L 3341 0 
L 2766 0 
L 2766 531 
Q 2569 213 2275 61 
Q 1981 -91 1556 -91 
Q 1019 -91 701 211 
Q 384 513 384 1019 
Q 384 1609 779 1909 
Q 1175 2209 1959 2209 
L 2766 2209 
L 2766 2266 
Q 2766 2663 2505 2880 
Q 2244 3097 1772 3097 
Q 1472 3097 1187 3025 
Q 903 2953 641 2809 
L 641 3341 
Q 956 3463 1253 3523 
Q 1550 3584 1831 3584 
Q 2591 3584 2966 3190 
Q 3341 2797 3341 1997 
z
" transform="scale(0.015625)"/>
       <path id="DejaVuSans-6e" d="M 3513 2113 
L 3513 0 
L 2938 0 
L 2938 2094 
Q 2938 2591 2744 2837 
Q 2550 3084 2163 3084 
Q 1697 3084 1428 2787 
Q 1159 2491 1159 1978 
L 1159 0 
L 581 0 
L 581 3500 
L 1159 3500 
L 1159 2956 
Q 1366 3272 1645 3428 
Q 1925 3584 2291 3584 
Q 2894 3584 3203 3211 
Q 3513 2838 3513 2113 
z
" transform="scale(0.015625)"/>
       <path id="DejaVuSans-69" d="M 603 3500 
L 1178 3500 
L 1178 0 
L 603 0 
L 603 3500 
z
M 603 4863 
L 1178 4863 
L 1178 4134 
L 603 4134 
L 603 4863 
z
" transform="scale(0.015625)"/>
      </defs>
      <use xlink:href="#DejaVuSans-47"/>
      <use xlink:href="#DejaVuSans-61" transform="translate(77.490234 0)"/>
      <use xlink:href="#DejaVuSans-6e" transform="translate(138.769531 0)"/>
      <use xlink:href="#DejaVuSans-6e" transform="translate(202.148438 0)"/>
      <use xlink:href="#DejaVuSans-69" transform="translate(265.527344 0)"/>
     </g>
    </g>
   </g>
   <g id="text_3">
    <g clip-path="url(#p836d59b6a9)">
     <!-- Uniqlo -->
     <g transform="translate(456.474797 302.540436) scale(0.09 -0.09)">
      <defs>
       <path id="DejaVuSans-55" d="M 556 4666 
L 1191 4666 
L 1191 1831 
Q 1191 1081 1462 751 
Q 1734 422 2344 422 
Q 2950 422 3222 751 
Q 3494 1081 3494 1831 
L 3494 4666 
L 4128 4666 
L 4128 1753 
Q 4128 841 3676 375 
Q 3225 -91 2344 -91 
Q 1459 -91 1007 375 
Q 556 841 556 1753 
L 556 4666 
z
" transform="scale(0.015625)"/>
       <path id="DejaVuSans-71" d="M 947 1747 
Q 947 1113 1208 752 
Q 1469 391 1925 391 
Q 2381 391 2643 752 
Q 2906 1113 2906 1747 
Q 2906 2381 2643 2742 
Q 2381 3103 1925 3103 
Q 1469 3103 1208 2742 
Q 947 2381 947 1747 
z
M 2906 525 
Q 2725 213 2448 61 
Q 2172 -91 1784 -91 
Q 1150 -91 751 415 
Q 353 922 353 1747 
Q 353 2572 751 3078 
Q 1150 3584 1784 3584 
Q 2172 3584 2448 3432 
Q 2725 3281 2906 2969 
L 2906 3500 
L 3481 3500 
L 3481 -1331 
L 2906 -1331 
L 2906 525 
z
" transform="scale(0.015625)"/>
       <path id="DejaVuSans-6c" d="M 603 4863 
L 1178 4863 
L 1178 0 
L 603 0 
L 603 4863 
z
" transform="scale(0.015625)"/>
       <path id="DejaVuSans-6f" d="M 1959 3097 
Q 1497 3097 1228 2736 
Q 959 2375 959 1747 
Q 959 1119 1226 758 
Q 1494 397 1959 397 
Q 2419 397 2687 759 
Q 2956 1122 2956 1747 
Q 2956 2369 2687 2733 
Q 2419 3097 1959 3097 
z
M 1959 3584 
Q 2709 3584 3137 3096 
Q 3566 2609 3566 1747 
Q 3566 888 3137 398 
Q 2709 -91 1959 -91 
Q 1206 -91 779 398 
Q 353 888 353 1747 
Q 353 2609 779 3096 
Q 1206 3584 1959 3584 
z
" transform="scale(0.015625)"/>
      </defs>
      <use xlink:href="#DejaVuSans-55"/>
      <use xlink:href="#DejaVuSans-6e" transform="translate(73.193359 0)"/>
      <use xlink:href="#DejaVuSans-69" transform="translate(136.572266 0)"/>
      <use xlink:href="#DejaVuSans-71" transform="translate(164.355469 0)"/>
      <use xlink:href="#DejaVuSans-6c" transform="translate(227.832031 0)"/>
      <use xlink:href="#DejaVuSans-6f" transform="translate(255.615234 0)"/>
     </g>
    </g>
   </g>
   <g id="text_4">
    <g clip-path="url(#p836d59b6a9)">
     <!-- Acne Studios -->
     <g transform="translate(258.255202 135.655914) scale(0.09 -0.09)">
      <defs>
       <path id="DejaVuSans-41" d="M 2188 4044 
L 1331 1722 
L 3047 1722 
L 2188 4044 
z
M 1831 4666 
L 2547 4666 
L 4325 0 
L 3669 0 
L 3244 1197 
L 1141 1197 
L 716 0 
L 50 0 
L 1831 4666 
z
" transform="scale(0.015625)"/>
       <path id="DejaVuSans-63" d="M 3122 3366 
L 3122 2828 
Q 2878 2963 2633 3030 
Q 2388 3097 2138 3097 
Q 1578 3097 1268 2742 
Q 959 2388 959 1747 
Q 959 1106 1268 751 
Q 1578 397 2138 397 
Q 2388 397 2633 464 
Q 2878 531 3122 666 
L 3122 134 
Q 2881 22 2623 -34 
Q 2366 -91 2075 -91 
Q 1284 -91 818 406 
Q 353 903 353 1747 
Q 353 2603 823 3093 
Q 1294 3584 2113 3584 
Q 2378 3584 2631 3529 
Q 2884 3475 3122 3366 
z
" transform="scale(0.015625)"/>
       <path id="DejaVuSans-65" d="M 3597 1894 
L 3597 1613 
L 953 1613 
Q 991 1019 1311 708 
Q 1631 397 2203 397 
Q 2534 397 2845 478 
Q 3156 559 3463 722 
L 3463 178 
Q 3153 47 2828 -22 
Q 2503 -91 2169 -91 
Q 1331 -91 842 396 
Q 353 884 353 1716 
Q 353 2575 817 3079 
Q 1281 3584 2069 3584 
Q 2775 3584 3186 3129 
Q 3597 2675 3597 1894 
z
M 3022 2063 
Q 3016 2534 2758 2815 
Q 2500 3097 2075 3097 
Q 1594 3097 1305 2825 
Q 1016 2553 972 2059 
L 3022 2063 
z
" transform="scale(0.015625)"/>
       <path id="DejaVuSans-20" transform="scale(0.015625)"/>
       <path id="DejaVuSans-74" d="M 1172 4494 
L 1172 3500 
L 2356 3500 
L 2356 3053 
L 1172 3053 
L 1172 1153 
Q 1172 725 1289 603 
Q 1406 481 1766 481 
L 2356 481 
L 2356 0 
L 1766 0 
Q 1100 0 847 248 
Q 594 497 594 1153 
L 594 3053 
L 172 3053 
L 172 3500 
L 594 3500 
L 594 4494 
L 1172 4494 
z
" transform="scale(0.015625)"/>
       <path id="DejaVuSans-75" d="M 544 1381 
L 544 3500 
L 1119 3500 
L 1119 1403 
Q 1119 906 1312 657 
Q 1506 409 1894 409 
Q 2359 409 2629 706 
Q 2900 1003 2900 1516 
L 2900 3500 
L 3475 3500 
L 3475 0 
L 2900 0 
L 2900 538 
Q 2691 219 2414 64 
Q 2138 -91 1772 -91 
Q 1169 -91 856 284 
Q 544 659 544 1381 
z
M 1991 3584 
L 1991 3584 
z
" transform="scale(0.015625)"/>
       <path id="DejaVuSans-64" d="M 2906 2969 
L 2906 4863 
L 3481 4863 
L 3481 0 
L 2906 0 
L 2906 525 
Q 2725 213 2448 61 
Q 2172 -91 1784 -91 
Q 1150 -91 751 415 
Q 353 922 353 1747 
Q 353 2572 751 3078 
Q 1150 3584 1784 3584 
Q 2172 3584 2448 3432 
Q 2725 3281 2906 2969 
z
M 947 1747 
Q 947 1113 1208 752 
Q 1469 391 1925 391 
Q 2381 391 2643 752 
Q 2906 1113 2906 1747 
Q 2906 2381 2643 2742 
Q 2381 3103 1925 3103 
Q 1469 3103 1208 2742 
Q 947 2381 947 1747 
z
" transform="scale(0.015625)"/>
       <path id="DejaVuSans-73" d="M 2834 3397 
L 2834 2853 
Q 2591 2978 2328 3040 
Q 2066 3103 1784 3103 
Q 1356 3103 1142 2972 
Q 928 2841 928 2578 
Q 928 2378 1081 2264 
Q 1234 2150 1697 2047 
L 1894 2003 
Q 2506 1872 2764 1633 
Q 3022 1394 3022 966 
Q 3022 478 2636 193 
Q 2250 -91 1575 -91 
Q 1294 -91 989 -36 
Q 684 19 347 128 
L 347 722 
Q 666 556 975 473 
Q 1284 391 1588 391 
Q 1994 391 2212 530 
Q 2431 669 2431 922 
Q 2431 1156 2273 1281 
Q 2116 1406 1581 1522 
L 1381 1569 
Q 847 1681 609 1914 
Q 372 2147 372 2553 
Q 372 3047 722 3315 
Q 1072 3584 1716 3584 
Q 2034 3584 2315 3537 
Q 2597 3491 2834 3397 
z
" transform="scale(0.015625)"/>
      </defs>
      <use xlink:href="#DejaVuSans-41"/>
      <use xlink:href="#DejaVuSans-63" transform="translate(66.658203 0)"/>
      <use xlink:href="#DejaVuSans-6e" transform="translate(121.638672 0)"/>
      <use xlink:href="#DejaVuSans-65" transform="translate(185.017578 0)"/>
      <use xlink:href="#DejaVuSans-20" transform="translate(246.541016 0)"/>
      <use xlink:href="#DejaVuSans-53" transform="translate(278.328125 0)"/>
      <use xlink:href="#DejaVuSans-74" transform="translate(341.804688 0)"/>
      <use xlink:href="#DejaVuSans-75" transform="translate(381.013672 0)"/>
      <use xlink:href="#DejaVuSans-64" transform="translate(444.392578 0)"/>
      <use xlink:href="#DejaVuSans-69" transform="translate(507.869141 0)"/>
      <use xlink:href="#DejaVuSans-6f" transform="translate(535.652344 0)"/>
      <use xlink:href="#DejaVuSans-73" transform="translate(596.833984 0)"/>
     </g>
    </g>
   </g>
   <g id="text_5">
    <g clip-path="url(#p836d59b6a9)">
     <!-- Comme des Garçons -->
     <g transform="translate(415.622328 83.215928) scale(0.09 -0.09)">
      <defs>
       <path id="DejaVuSans-6d" d="M 3328 2828 
Q 3544 3216 3844 3400 
Q 4144 3584 4550 3584 
Q 5097 3584 5394 3201 
Q 5691 2819 5691 2113 
L 5691 0 
L 5113 0 
L 5113 2094 
Q 5113 2597 4934 2840 
Q 4756 3084 4391 3084 
Q 3944 3084 3684 2787 
Q 3425 2491 3425 1978 
L 3425 0 
L 2847 0 
L 2847 2094 
Q 2847 2600 2669 2842 
Q 2491 3084 2119 3084 
Q 1678 3084 1418 2786 
Q 1159 2488 1159 1978 
L 1159 0 
L 581 0 
L 581 3500 
L 1159 3500 
L 1159 2956 
Q 1356 3278 1631 3431 
Q 1906 3584 2284 3584 
Q 2666 3584 2933 3390 
Q 3200 3197 3328 2828 
z
" transform="scale(0.015625)"/>
       <path id="DejaVuSans-72" d="M 2631 2963 
Q 2534 3019 2420 3045 
Q 2306 3072 2169 3072 
Q 1681 3072 1420 2755 
Q 1159 2438 1159 1844 
L 1159 0 
L 581 0 
L 581 3500 
L 1159 3500 
L 1159 2956 
Q 1341 3275 1631 3429 
Q 1922 3584 2338 3584 
Q 2397 3584 2469 3576 
Q 2541 3569 2628 3553 
L 2631 2963 
z
" transform="scale(0.015625)"/>
       <path id="DejaVuSans-e7" d="M 3122 3366 
L 3122 2828 
Q 2878 2963 2633 3030 
Q 2388 3097 2138 3097 
Q 1578 3097 1268 2742 
Q 959 2388 959 1747 
Q 959 1106 1268 751 
Q 1578 397 2138 397 
Q 2388 397 2633 464 
Q 2878 531 3122 666 
L 3122 134 
Q 2881 22 2623 -34 
Q 2366 -91 2075 -91 
Q 1284 -91 818 406 
Q 353 903 353 1747 
Q 353 2603 823 3093 
Q 1294 3584 2113 3584 
Q 2378 3584 2631 3529 
Q 2884 3475 3122 3366 
z
M 2311 0 
Q 2482 -194 2566 -358 
Q 2651 -522 2651 -672 
Q 2651 -950 2463 -1092 
Q 2276 -1234 1907 -1234 
Q 1764 -1234 1628 -1215 
Q 1492 -1197 1357 -1159 
L 1357 -750 
Q 1464 -803 1579 -826 
Q 1695 -850 1842 -850 
Q 2026 -850 2120 -775 
Q 2214 -700 2214 -556 
Q 2214 -463 2146 -327 
Q 2079 -191 1939 0 
L 2311 0 
z
" transform="scale(0.015625)"/>
      </defs>
      <use xlink:href="#DejaVuSans-43"/>
      <use xlink:href="#DejaVuSans-6f" transform="translate(69.824219 0)"/>
      <use xlink:href="#DejaVuSans-6d" transform="translate(131.005859 0)"/>
      <use xlink:href="#DejaVuSans-6d" transform="translate(228.417969 0)"/>
      <use xlink:href="#DejaVuSans-65" transform="translate(325.830078 0)"/>
      <use xlink:href="#DejaVuSans-20" transform="translate(387.353516 0)"/>
      <use xlink:href="#DejaVuSans-64" transform="translate(419.140625 0)"/>
      <use xlink:href="#DejaVuSans-65" transform="translate(482.617188 0)"/>
      <use xlink:href="#DejaVuSans-73" transform="translate(544.140625 0)"/>
      <use xlink:href="#DejaVuSans-20" transform="translate(596.240234 0)"/>
      <use xlink:href="#DejaVuSans-47" transform="translate(628.027344 0)"/>
      <use xlink:href="#DejaVuSans-61" transform="translate(705.517578 0)"/>
      <use xlink:href="#DejaVuSans-72" transform="translate(766.796875 0)"/>
      <use xlink:href="#DejaVuSans-e7" transform="translate(805.660156 0)"/>
      <use xlink:href="#DejaVuSans-6f" transform="translate(860.640625 0)"/>
      <use xlink:href="#DejaVuSans-6e" transform="translate(921.822266 0)"/>
      <use xlink:href="#DejaVuSans-73" transform="translate(985.201172 0)"/>
     </g>
    </g>
   </g>
   <g id="text_6">
    <g clip-path="url(#p836d59b6a9)">
     <!-- Staud -->
     <g transform="translate(169.878797 148.588185) scale(0.09 -0.09)">
      <use xlink:href="#DejaVuSans-53"/>
      <use xlink:href="#DejaVuSans-74" transform="translate(63.476562 0)"/>
      <use xlink:href="#DejaVuSans-61" transform="translate(102.685547 0)"/>
      <use xlink:href="#DejaVuSans-75" transform="translate(163.964844 0)"/>
      <use xlink:href="#DejaVuSans-64" transform="translate(227.34375 0)"/>
     </g>
    </g>
   </g>
   <g id="text_7">
    <g clip-path="url(#p836d59b6a9)">
     <!-- Stone Island -->
     <g transform="translate(423.622993 215.715333) scale(0.09 -0.09)">
      <defs>
       <path id="DejaVuSans-49" d="M 628 4666 
L 1259 4666 
L 1259 0 
L 628 0 
L 628 4666 
z
" transform="scale(0.015625)"/>
      </defs>
      <use xlink:href="#DejaVuSans-53"/>
      <use xlink:href="#DejaVuSans-74" transform="translate(63.476562 0)"/>
      <use xlink:href="#DejaVuSans-6f" transform="translate(102.685547 0)"/>
      <use xlink:href="#DejaVuSans-6e" transform="translate(163.867188 0)"/>
      <use xlink:href="#DejaVuSans-65" transform="translate(227.246094 0)"/>
      <use xlink:href="#DejaVuSans-20" transform="translate(288.769531 0)"/>
      <use xlink:href="#DejaVuSans-49" transform="translate(320.556641 0)"/>
      <use xlink:href="#DejaVuSans-73" transform="translate(350.048828 0)"/>
      <use xlink:href="#DejaVuSans-6c" transform="translate(402.148438 0)"/>
      <use xlink:href="#DejaVuSans-61" transform="translate(429.931641 0)"/>
      <use xlink:href="#DejaVuSans-6e" transform="translate(491.210938 0)"/>
      <use xlink:href="#DejaVuSans-64" transform="translate(554.589844 0)"/>
     </g>
    </g>
   </g>
   <g id="text_8">
    <g clip-path="url(#p836d59b6a9)">
     <!-- Jacquemus -->
     <g transform="translate(237.888731 276.337728) scale(0.09 -0.09)">
      <defs>
       <path id="DejaVuSans-4a" d="M 628 4666 
L 1259 4666 
L 1259 325 
Q 1259 -519 939 -900 
Q 619 -1281 -91 -1281 
L -331 -1281 
L -331 -750 
L -134 -750 
Q 284 -750 456 -515 
Q 628 -281 628 325 
L 628 4666 
z
" transform="scale(0.015625)"/>
      </defs>
      <use xlink:href="#DejaVuSans-4a"/>
      <use xlink:href="#DejaVuSans-61" transform="translate(29.492188 0)"/>
      <use xlink:href="#DejaVuSans-63" transform="translate(90.771484 0)"/>
      <use xlink:href="#DejaVuSans-71" transform="translate(145.751953 0)"/>
      <use xlink:href="#DejaVuSans-75" transform="translate(209.228516 0)"/>
      <use xlink:href="#DejaVuSans-65" transform="translate(272.607422 0)"/>
      <use xlink:href="#DejaVuSans-6d" transform="translate(334.130859 0)"/>
      <use xlink:href="#DejaVuSans-75" transform="translate(431.542969 0)"/>
      <use xlink:href="#DejaVuSans-73" transform="translate(494.921875 0)"/>
     </g>
    </g>
   </g>
   <g id="text_9">
    <g clip-path="url(#p836d59b6a9)">
     <!-- Armani -->
     <g transform="translate(317.358217 554.811215) scale(0.09 -0.09)">
      <use xlink:href="#DejaVuSans-41"/>
      <use xlink:href="#DejaVuSans-72" transform="translate(68.408203 0)"/>
      <use xlink:href="#DejaVuSans-6d" transform="translate(107.771484 0)"/>
      <use xlink:href="#DejaVuSans-61" transform="translate(205.183594 0)"/>
      <use xlink:href="#DejaVuSans-6e" transform="translate(266.462891 0)"/>
      <use xlink:href="#DejaVuSans-69" transform="translate(329.841797 0)"/>
     </g>
    </g>
   </g>
   <g id="text_10">
    <g clip-path="url(#p836d59b6a9)">
     <!-- Valentino -->
     <g transform="translate(439.588934 566.949516) scale(0.09 -0.09)">
      <defs>
       <path id="DejaVuSans-56" d="M 1831 0 
L 50 4666 
L 709 4666 
L 2188 738 
L 3669 4666 
L 4325 4666 
L 2547 0 
L 1831 0 
z
" transform="scale(0.015625)"/>
      </defs>
      <use xlink:href="#DejaVuSans-56"/>
      <use xlink:href="#DejaVuSans-61" transform="translate(60.658203 0)"/>
      <use xlink:href="#DejaVuSans-6c" transform="translate(121.9375 0)"/>
      <use xlink:href="#DejaVuSans-65" transform="translate(149.720703 0)"/>
      <use xlink:href="#DejaVuSans-6e" transform="translate(211.244141 0)"/>
      <use xlink:href="#DejaVuSans-74" transform="translate(274.623047 0)"/>
      <use xlink:href="#DejaVuSans-69" transform="translate(313.832031 0)"/>
      <use xlink:href="#DejaVuSans-6e" transform="translate(341.615234 0)"/>
      <use xlink:href="#DejaVuSans-6f" transform="translate(404.994141 0)"/>
     </g>
    </g>
   </g>
   <g id="text_11">
    <g clip-path="url(#p836d59b6a9)">
     <!-- Versace -->
     <g transform="translate(276.854651 464.271086) scale(0.09 -0.09)">
      <use xlink:href="#DejaVuSans-56"/>
      <use xlink:href="#DejaVuSans-65" transform="translate(60.658203 0)"/>
      <use xlink:href="#DejaVuSans-72" transform="translate(122.181641 0)"/>
      <use xlink:href="#DejaVuSans-73" transform="translate(163.294922 0)"/>
      <use xlink:href="#DejaVuSans-61" transform="translate(215.394531 0)"/>
      <use xlink:href="#DejaVuSans-63" transform="translate(276.673828 0)"/>
      <use xlink:href="#DejaVuSans-65" transform="translate(331.654297 0)"/>
     </g>
    </g>
   </g>
   <g id="text_12">
    <g clip-path="url(#p836d59b6a9)">
     <!-- Augustinus Bader -->
     <g transform="translate(88.686382 317.318371) scale(0.09 -0.09)">
      <defs>
       <path id="DejaVuSans-67" d="M 2906 1791 
Q 2906 2416 2648 2759 
Q 2391 3103 1925 3103 
Q 1463 3103 1205 2759 
Q 947 2416 947 1791 
Q 947 1169 1205 825 
Q 1463 481 1925 481 
Q 2391 481 2648 825 
Q 2906 1169 2906 1791 
z
M 3481 434 
Q 3481 -459 3084 -895 
Q 2688 -1331 1869 -1331 
Q 1566 -1331 1297 -1286 
Q 1028 -1241 775 -1147 
L 775 -588 
Q 1028 -725 1275 -790 
Q 1522 -856 1778 -856 
Q 2344 -856 2625 -561 
Q 2906 -266 2906 331 
L 2906 616 
Q 2728 306 2450 153 
Q 2172 0 1784 0 
Q 1141 0 747 490 
Q 353 981 353 1791 
Q 353 2603 747 3093 
Q 1141 3584 1784 3584 
Q 2172 3584 2450 3431 
Q 2728 3278 2906 2969 
L 2906 3500 
L 3481 3500 
L 3481 434 
z
" transform="scale(0.015625)"/>
       <path id="DejaVuSans-42" d="M 1259 2228 
L 1259 519 
L 2272 519 
Q 2781 519 3026 730 
Q 3272 941 3272 1375 
Q 3272 1813 3026 2020 
Q 2781 2228 2272 2228 
L 1259 2228 
z
M 1259 4147 
L 1259 2741 
L 2194 2741 
Q 2656 2741 2882 2914 
Q 3109 3088 3109 3444 
Q 3109 3797 2882 3972 
Q 2656 4147 2194 4147 
L 1259 4147 
z
M 628 4666 
L 2241 4666 
Q 2963 4666 3353 4366 
Q 3744 4066 3744 3513 
Q 3744 3084 3544 2831 
Q 3344 2578 2956 2516 
Q 3422 2416 3680 2098 
Q 3938 1781 3938 1306 
Q 3938 681 3513 340 
Q 3088 0 2303 0 
L 628 0 
L 628 4666 
z
" transform="scale(0.015625)"/>
      </defs>
      <use xlink:href="#DejaVuSans-41"/>
      <use xlink:href="#DejaVuSans-75" transform="translate(68.408203 0)"/>
      <use xlink:href="#DejaVuSans-67" transform="translate(131.787109 0)"/>
      <use xlink:href="#DejaVuSans-75" transform="translate(195.263672 0)"/>
      <use xlink:href="#DejaVuSans-73" transform="translate(258.642578 0)"/>
      <use xlink:href="#DejaVuSans-74" transform="translate(310.742188 0)"/>
      <use xlink:href="#DejaVuSans-69" transform="translate(349.951172 0)"/>
      <use xlink:href="#DejaVuSans-6e" transform="translate(377.734375 0)"/>
      <use xlink:href="#DejaVuSans-75" transform="translate(441.113281 0)"/>
      <use xlink:href="#DejaVuSans-73" transform="translate(504.492188 0)"/>
      <use xlink:href="#DejaVuSans-20" transform="translate(556.591797 0)"/>
      <use xlink:href="#DejaVuSans-42" transform="translate(588.378906 0)"/>
      <use xlink:href="#DejaVuSans-61" transform="translate(656.982422 0)"/>
      <use xlink:href="#DejaVuSans-64" transform="translate(718.261719 0)"/>
      <use xlink:href="#DejaVuSans-65" transform="translate(781.738281 0)"/>
      <use xlink:href="#DejaVuSans-72" transform="translate(843.261719 0)"/>
     </g>
    </g>
   </g>
   <g id="text_13">
    <g clip-path="url(#p836d59b6a9)">
     <!-- Charlotte Tilbury -->
     <g transform="translate(260.222383 132.81766) scale(0.09 -0.09)">
      <defs>
       <path id="DejaVuSans-68" d="M 3513 2113 
L 3513 0 
L 2938 0 
L 2938 2094 
Q 2938 2591 2744 2837 
Q 2550 3084 2163 3084 
Q 1697 3084 1428 2787 
Q 1159 2491 1159 1978 
L 1159 0 
L 581 0 
L 581 4863 
L 1159 4863 
L 1159 2956 
Q 1366 3272 1645 3428 
Q 1925 3584 2291 3584 
Q 2894 3584 3203 3211 
Q 3513 2838 3513 2113 
z
" transform="scale(0.015625)"/>
       <path id="DejaVuSans-54" d="M -19 4666 
L 3928 4666 
L 3928 4134 
L 2272 4134 
L 2272 0 
L 1638 0 
L 1638 4134 
L -19 4134 
L -19 4666 
z
" transform="scale(0.015625)"/>
       <path id="DejaVuSans-62" d="M 3116 1747 
Q 3116 2381 2855 2742 
Q 2594 3103 2138 3103 
Q 1681 3103 1420 2742 
Q 1159 2381 1159 1747 
Q 1159 1113 1420 752 
Q 1681 391 2138 391 
Q 2594 391 2855 752 
Q 3116 1113 3116 1747 
z
M 1159 2969 
Q 1341 3281 1617 3432 
Q 1894 3584 2278 3584 
Q 2916 3584 3314 3078 
Q 3713 2572 3713 1747 
Q 3713 922 3314 415 
Q 2916 -91 2278 -91 
Q 1894 -91 1617 61 
Q 1341 213 1159 525 
L 1159 0 
L 581 0 
L 581 4863 
L 1159 4863 
L 1159 2969 
z
" transform="scale(0.015625)"/>
       <path id="DejaVuSans-79" d="M 2059 -325 
Q 1816 -950 1584 -1140 
Q 1353 -1331 966 -1331 
L 506 -1331 
L 506 -850 
L 844 -850 
Q 1081 -850 1212 -737 
Q 1344 -625 1503 -206 
L 1606 56 
L 191 3500 
L 800 3500 
L 1894 763 
L 2988 3500 
L 3597 3500 
L 2059 -325 
z
" transform="scale(0.015625)"/>
      </defs>
      <use xlink:href="#DejaVuSans-43"/>
      <use xlink:href="#DejaVuSans-68" transform="translate(69.824219 0)"/>
      <use xlink:href="#DejaVuSans-61" transform="translate(133.203125 0)"/>
      <use xlink:href="#DejaVuSans-72" transform="translate(194.482422 0)"/>
      <use xlink:href="#DejaVuSans-6c" transform="translate(235.595703 0)"/>
      <use xlink:href="#DejaVuSans-6f" transform="translate(263.378906 0)"/>
      <use xlink:href="#DejaVuSans-74" transform="translate(324.560547 0)"/>
      <use xlink:href="#DejaVuSans-74" transform="translate(363.769531 0)"/>
      <use xlink:href="#DejaVuSans-65" transform="translate(402.978516 0)"/>
      <use xlink:href="#DejaVuSans-20" transform="translate(464.501953 0)"/>
      <use xlink:href="#DejaVuSans-54" transform="translate(496.289062 0)"/>
      <use xlink:href="#DejaVuSans-69" transform="translate(554.248047 0)"/>
      <use xlink:href="#DejaVuSans-6c" transform="translate(582.03125 0)"/>
      <use xlink:href="#DejaVuSans-62" transform="translate(609.814453 0)"/>
      <use xlink:href="#DejaVuSans-75" transform="translate(673.291016 0)"/>
      <use xlink:href="#DejaVuSans-72" transform="translate(736.669922 0)"/>
      <use xlink:href="#DejaVuSans-79" transform="translate(777.783203 0)"/>
     </g>
    </g>
   </g>
   <g id="text_14">
    <g clip-path="url(#p836d59b6a9)">
     <!-- La Mer -->
     <g transform="translate(85.65693 243.825053) scale(0.09 -0.09)">
      <defs>
       <path id="DejaVuSans-4c" d="M 628 4666 
L 1259 4666 
L 1259 531 
L 3531 531 
L 3531 0 
L 628 0 
L 628 4666 
z
" transform="scale(0.015625)"/>
       <path id="DejaVuSans-4d" d="M 628 4666 
L 1569 4666 
L 2759 1491 
L 3956 4666 
L 4897 4666 
L 4897 0 
L 4281 0 
L 4281 4097 
L 3078 897 
L 2444 897 
L 1241 4097 
L 1241 0 
L 628 0 
L 628 4666 
z
" transform="scale(0.015625)"/>
      </defs>
      <use xlink:href="#DejaVuSans-4c"/>
      <use xlink:href="#DejaVuSans-61" transform="translate(55.712891 0)"/>
      <use xlink:href="#DejaVuSans-20" transform="translate(116.992188 0)"/>
      <use xlink:href="#DejaVuSans-4d" transform="translate(148.779297 0)"/>
      <use xlink:href="#DejaVuSans-65" transform="translate(235.058594 0)"/>
      <use xlink:href="#DejaVuSans-72" transform="translate(296.582031 0)"/>
     </g>
    </g>
   </g>
   <g id="text_15">
    <g clip-path="url(#p836d59b6a9)">
     <!-- Ba&amp;sh -->
     <g transform="translate(446.782958 509.173652) scale(0.09 -0.09)">
      <defs>
       <path id="DejaVuSans-26" d="M 1556 2509 
Q 1272 2256 1139 2004 
Q 1006 1753 1006 1478 
Q 1006 1022 1337 719 
Q 1669 416 2169 416 
Q 2466 416 2725 514 
Q 2984 613 3213 813 
L 1556 2509 
z
M 1997 2859 
L 3584 1234 
Q 3769 1513 3872 1830 
Q 3975 2147 3994 2503 
L 4575 2503 
Q 4538 2091 4375 1687 
Q 4213 1284 3922 891 
L 4794 0 
L 4006 0 
L 3559 459 
Q 3234 181 2878 45 
Q 2522 -91 2113 -91 
Q 1359 -91 881 339 
Q 403 769 403 1441 
Q 403 1841 612 2192 
Q 822 2544 1241 2853 
Q 1091 3050 1012 3245 
Q 934 3441 934 3628 
Q 934 4134 1281 4442 
Q 1628 4750 2203 4750 
Q 2463 4750 2720 4694 
Q 2978 4638 3244 4525 
L 3244 3956 
Q 2972 4103 2725 4179 
Q 2478 4256 2266 4256 
Q 1938 4256 1733 4082 
Q 1528 3909 1528 3634 
Q 1528 3475 1620 3314 
Q 1713 3153 1997 2859 
z
" transform="scale(0.015625)"/>
      </defs>
      <use xlink:href="#DejaVuSans-42"/>
      <use xlink:href="#DejaVuSans-61" transform="translate(68.603516 0)"/>
      <use xlink:href="#DejaVuSans-26" transform="translate(129.882812 0)"/>
      <use xlink:href="#DejaVuSans-73" transform="translate(207.861328 0)"/>
      <use xlink:href="#DejaVuSans-68" transform="translate(259.960938 0)"/>
     </g>
    </g>
   </g>
   <g id="text_16">
    <g clip-path="url(#p836d59b6a9)">
     <!-- Maje -->
     <g transform="translate(543.076096 493.618422) scale(0.09 -0.09)">
      <defs>
       <path id="DejaVuSans-6a" d="M 603 3500 
L 1178 3500 
L 1178 -63 
Q 1178 -731 923 -1031 
Q 669 -1331 103 -1331 
L -116 -1331 
L -116 -844 
L 38 -844 
Q 366 -844 484 -692 
Q 603 -541 603 -63 
L 603 3500 
z
M 603 4863 
L 1178 4863 
L 1178 4134 
L 603 4134 
L 603 4863 
z
" transform="scale(0.015625)"/>
      </defs>
      <use xlink:href="#DejaVuSans-4d"/>
      <use xlink:href="#DejaVuSans-61" transform="translate(86.279297 0)"/>
      <use xlink:href="#DejaVuSans-6a" transform="translate(147.558594 0)"/>
      <use xlink:href="#DejaVuSans-65" transform="translate(175.341797 0)"/>
     </g>
    </g>
   </g>
   <g id="text_17">
    <g clip-path="url(#p836d59b6a9)">
     <!-- Sandro -->
     <g transform="translate(369.878866 360.215975) scale(0.09 -0.09)">
      <use xlink:href="#DejaVuSans-53"/>
      <use xlink:href="#DejaVuSans-61" transform="translate(63.476562 0)"/>
      <use xlink:href="#DejaVuSans-6e" transform="translate(124.755859 0)"/>
      <use xlink:href="#DejaVuSans-64" transform="translate(188.134766 0)"/>
      <use xlink:href="#DejaVuSans-72" transform="translate(251.611328 0)"/>
      <use xlink:href="#DejaVuSans-6f" transform="translate(290.474609 0)"/>
     </g>
    </g>
   </g>
   <g id="text_18">
    <g clip-path="url(#p836d59b6a9)">
     <!-- Berluti -->
     <g transform="translate(667.082278 357.675866) scale(0.09 -0.09)">
      <use xlink:href="#DejaVuSans-42"/>
      <use xlink:href="#DejaVuSans-65" transform="translate(68.603516 0)"/>
      <use xlink:href="#DejaVuSans-72" transform="translate(130.126953 0)"/>
      <use xlink:href="#DejaVuSans-6c" transform="translate(171.240234 0)"/>
      <use xlink:href="#DejaVuSans-75" transform="translate(199.023438 0)"/>
      <use xlink:href="#DejaVuSans-74" transform="translate(262.402344 0)"/>
      <use xlink:href="#DejaVuSans-69" transform="translate(301.611328 0)"/>
     </g>
    </g>
   </g>
   <g id="text_19">
    <g clip-path="url(#p836d59b6a9)">
     <!-- Brioni -->
     <g transform="translate(545.476722 445.633972) scale(0.09 -0.09)">
      <use xlink:href="#DejaVuSans-42"/>
      <use xlink:href="#DejaVuSans-72" transform="translate(68.603516 0)"/>
      <use xlink:href="#DejaVuSans-69" transform="translate(109.716797 0)"/>
      <use xlink:href="#DejaVuSans-6f" transform="translate(137.5 0)"/>
      <use xlink:href="#DejaVuSans-6e" transform="translate(198.681641 0)"/>
      <use xlink:href="#DejaVuSans-69" transform="translate(262.060547 0)"/>
     </g>
    </g>
   </g>
   <g id="text_20">
    <g clip-path="url(#p836d59b6a9)">
     <!-- Tom Ford -->
     <g transform="translate(657.227804 456.902004) scale(0.09 -0.09)">
      <defs>
       <path id="DejaVuSans-46" d="M 628 4666 
L 3309 4666 
L 3309 4134 
L 1259 4134 
L 1259 2759 
L 3109 2759 
L 3109 2228 
L 1259 2228 
L 1259 0 
L 628 0 
L 628 4666 
z
" transform="scale(0.015625)"/>
      </defs>
      <use xlink:href="#DejaVuSans-54"/>
      <use xlink:href="#DejaVuSans-6f" transform="translate(44.083984 0)"/>
      <use xlink:href="#DejaVuSans-6d" transform="translate(105.265625 0)"/>
      <use xlink:href="#DejaVuSans-20" transform="translate(202.677734 0)"/>
      <use xlink:href="#DejaVuSans-46" transform="translate(234.464844 0)"/>
      <use xlink:href="#DejaVuSans-6f" transform="translate(288.359375 0)"/>
      <use xlink:href="#DejaVuSans-72" transform="translate(349.541016 0)"/>
      <use xlink:href="#DejaVuSans-64" transform="translate(388.904297 0)"/>
     </g>
    </g>
   </g>
   <g id="text_21">
    <g clip-path="url(#p836d59b6a9)">
     <!-- Bottega Veneta -->
     <g transform="translate(152.055583 339.210265) scale(0.09 -0.09)">
      <use xlink:href="#DejaVuSans-42"/>
      <use xlink:href="#DejaVuSans-6f" transform="translate(68.603516 0)"/>
      <use xlink:href="#DejaVuSans-74" transform="translate(129.785156 0)"/>
      <use xlink:href="#DejaVuSans-74" transform="translate(168.994141 0)"/>
      <use xlink:href="#DejaVuSans-65" transform="translate(208.203125 0)"/>
      <use xlink:href="#DejaVuSans-67" transform="translate(269.726562 0)"/>
      <use xlink:href="#DejaVuSans-61" transform="translate(333.203125 0)"/>
      <use xlink:href="#DejaVuSans-20" transform="translate(394.482422 0)"/>
      <use xlink:href="#DejaVuSans-56" transform="translate(426.269531 0)"/>
      <use xlink:href="#DejaVuSans-65" transform="translate(486.927734 0)"/>
      <use xlink:href="#DejaVuSans-6e" transform="translate(548.451172 0)"/>
      <use xlink:href="#DejaVuSans-65" transform="translate(611.830078 0)"/>
      <use xlink:href="#DejaVuSans-74" transform="translate(673.353516 0)"/>
      <use xlink:href="#DejaVuSans-61" transform="translate(712.5625 0)"/>
     </g>
    </g>
   </g>
   <g id="text_22">
    <g clip-path="url(#p836d59b6a9)">
     <!-- Dior Men -->
     <g transform="translate(57.400783 205.311098) scale(0.09 -0.09)">
      <defs>
       <path id="DejaVuSans-44" d="M 1259 4147 
L 1259 519 
L 2022 519 
Q 2988 519 3436 956 
Q 3884 1394 3884 2338 
Q 3884 3275 3436 3711 
Q 2988 4147 2022 4147 
L 1259 4147 
z
M 628 4666 
L 1925 4666 
Q 3281 4666 3915 4102 
Q 4550 3538 4550 2338 
Q 4550 1131 3912 565 
Q 3275 0 1925 0 
L 628 0 
L 628 4666 
z
" transform="scale(0.015625)"/>
      </defs>
      <use xlink:href="#DejaVuSans-44"/>
      <use xlink:href="#DejaVuSans-69" transform="translate(77.001953 0)"/>
      <use xlink:href="#DejaVuSans-6f" transform="translate(104.785156 0)"/>
      <use xlink:href="#DejaVuSans-72" transform="translate(165.966797 0)"/>
      <use xlink:href="#DejaVuSans-20" transform="translate(207.080078 0)"/>
      <use xlink:href="#DejaVuSans-4d" transform="translate(238.867188 0)"/>
      <use xlink:href="#DejaVuSans-65" transform="translate(325.146484 0)"/>
      <use xlink:href="#DejaVuSans-6e" transform="translate(386.669922 0)"/>
     </g>
    </g>
   </g>
   <g id="text_23">
    <g clip-path="url(#p836d59b6a9)">
     <!-- Louis Vuitton -->
     <g transform="translate(150.383784 189.564512) scale(0.09 -0.09)">
      <use xlink:href="#DejaVuSans-4c"/>
      <use xlink:href="#DejaVuSans-6f" transform="translate(53.962891 0)"/>
      <use xlink:href="#DejaVuSans-75" transform="translate(115.144531 0)"/>
      <use xlink:href="#DejaVuSans-69" transform="translate(178.523438 0)"/>
      <use xlink:href="#DejaVuSans-73" transform="translate(206.306641 0)"/>
      <use xlink:href="#DejaVuSans-20" transform="translate(258.40625 0)"/>
      <use xlink:href="#DejaVuSans-56" transform="translate(290.193359 0)"/>
      <use xlink:href="#DejaVuSans-75" transform="translate(351.851562 0)"/>
      <use xlink:href="#DejaVuSans-69" transform="translate(415.230469 0)"/>
      <use xlink:href="#DejaVuSans-74" transform="translate(443.013672 0)"/>
      <use xlink:href="#DejaVuSans-74" transform="translate(482.222656 0)"/>
      <use xlink:href="#DejaVuSans-6f" transform="translate(521.431641 0)"/>
      <use xlink:href="#DejaVuSans-6e" transform="translate(582.613281 0)"/>
     </g>
    </g>
   </g>
   <g id="text_24">
    <g clip-path="url(#p836d59b6a9)">
     <!-- Mugler -->
     <g transform="translate(173.302103 291.806631) scale(0.09 -0.09)">
      <use xlink:href="#DejaVuSans-4d"/>
      <use xlink:href="#DejaVuSans-75" transform="translate(86.279297 0)"/>
      <use xlink:href="#DejaVuSans-67" transform="translate(149.658203 0)"/>
      <use xlink:href="#DejaVuSans-6c" transform="translate(213.134766 0)"/>
      <use xlink:href="#DejaVuSans-65" transform="translate(240.917969 0)"/>
      <use xlink:href="#DejaVuSans-72" transform="translate(302.441406 0)"/>
     </g>
    </g>
   </g>
   <g id="text_25">
    <g clip-path="url(#p836d59b6a9)">
     <!-- The Row -->
     <g transform="translate(294.14065 429.014398) scale(0.09 -0.09)">
      <defs>
       <path id="DejaVuSans-52" d="M 2841 2188 
Q 3044 2119 3236 1894 
Q 3428 1669 3622 1275 
L 4263 0 
L 3584 0 
L 2988 1197 
Q 2756 1666 2539 1819 
Q 2322 1972 1947 1972 
L 1259 1972 
L 1259 0 
L 628 0 
L 628 4666 
L 2053 4666 
Q 2853 4666 3247 4331 
Q 3641 3997 3641 3322 
Q 3641 2881 3436 2590 
Q 3231 2300 2841 2188 
z
M 1259 4147 
L 1259 2491 
L 2053 2491 
Q 2509 2491 2742 2702 
Q 2975 2913 2975 3322 
Q 2975 3731 2742 3939 
Q 2509 4147 2053 4147 
L 1259 4147 
z
" transform="scale(0.015625)"/>
       <path id="DejaVuSans-77" d="M 269 3500 
L 844 3500 
L 1563 769 
L 2278 3500 
L 2956 3500 
L 3675 769 
L 4391 3500 
L 4966 3500 
L 4050 0 
L 3372 0 
L 2619 2869 
L 1863 0 
L 1184 0 
L 269 3500 
z
" transform="scale(0.015625)"/>
      </defs>
      <use xlink:href="#DejaVuSans-54"/>
      <use xlink:href="#DejaVuSans-68" transform="translate(61.083984 0)"/>
      <use xlink:href="#DejaVuSans-65" transform="translate(124.462891 0)"/>
      <use xlink:href="#DejaVuSans-20" transform="translate(185.986328 0)"/>
      <use xlink:href="#DejaVuSans-52" transform="translate(217.773438 0)"/>
      <use xlink:href="#DejaVuSans-6f" transform="translate(282.755859 0)"/>
      <use xlink:href="#DejaVuSans-77" transform="translate(343.9375 0)"/>
     </g>
    </g>
   </g>
   <g id="text_26">
    <g clip-path="url(#p836d59b6a9)">
     <!-- Brandy Melville -->
     <g transform="translate(679.765311 203.515626) scale(0.09 -0.09)">
      <defs>
       <path id="DejaVuSans-76" d="M 191 3500 
L 800 3500 
L 1894 563 
L 2988 3500 
L 3597 3500 
L 2284 0 
L 1503 0 
L 191 3500 
z
" transform="scale(0.015625)"/>
      </defs>
      <use xlink:href="#DejaVuSans-42"/>
      <use xlink:href="#DejaVuSans-72" transform="translate(68.603516 0)"/>
      <use xlink:href="#DejaVuSans-61" transform="translate(109.716797 0)"/>
      <use xlink:href="#DejaVuSans-6e" transform="translate(170.996094 0)"/>
      <use xlink:href="#DejaVuSans-64" transform="translate(234.375 0)"/>
      <use xlink:href="#DejaVuSans-79" transform="translate(297.851562 0)"/>
      <use xlink:href="#DejaVuSans-20" transform="translate(357.03125 0)"/>
      <use xlink:href="#DejaVuSans-4d" transform="translate(388.818359 0)"/>
      <use xlink:href="#DejaVuSans-65" transform="translate(475.097656 0)"/>
      <use xlink:href="#DejaVuSans-6c" transform="translate(536.621094 0)"/>
      <use xlink:href="#DejaVuSans-76" transform="translate(564.404297 0)"/>
      <use xlink:href="#DejaVuSans-69" transform="translate(623.583984 0)"/>
      <use xlink:href="#DejaVuSans-6c" transform="translate(651.367188 0)"/>
      <use xlink:href="#DejaVuSans-6c" transform="translate(679.150391 0)"/>
      <use xlink:href="#DejaVuSans-65" transform="translate(706.933594 0)"/>
     </g>
    </g>
   </g>
   <g id="text_27">
    <g clip-path="url(#p836d59b6a9)">
     <!-- Revolve -->
     <g transform="translate(654.41313 129.849536) scale(0.09 -0.09)">
      <use xlink:href="#DejaVuSans-52"/>
      <use xlink:href="#DejaVuSans-65" transform="translate(64.982422 0)"/>
      <use xlink:href="#DejaVuSans-76" transform="translate(126.505859 0)"/>
      <use xlink:href="#DejaVuSans-6f" transform="translate(185.685547 0)"/>
      <use xlink:href="#DejaVuSans-6c" transform="translate(246.867188 0)"/>
      <use xlink:href="#DejaVuSans-76" transform="translate(274.650391 0)"/>
      <use xlink:href="#DejaVuSans-65" transform="translate(333.830078 0)"/>
     </g>
    </g>
   </g>
   <g id="text_28">
    <g clip-path="url(#p836d59b6a9)">
     <!-- Urban Outfitters -->
     <g transform="translate(563.581766 107.850772) scale(0.09 -0.09)">
      <defs>
       <path id="DejaVuSans-66" d="M 2375 4863 
L 2375 4384 
L 1825 4384 
Q 1516 4384 1395 4259 
Q 1275 4134 1275 3809 
L 1275 3500 
L 2222 3500 
L 2222 3053 
L 1275 3053 
L 1275 0 
L 697 0 
L 697 3053 
L 147 3053 
L 147 3500 
L 697 3500 
L 697 3744 
Q 697 4328 969 4595 
Q 1241 4863 1831 4863 
L 2375 4863 
z
" transform="scale(0.015625)"/>
      </defs>
      <use xlink:href="#DejaVuSans-55"/>
      <use xlink:href="#DejaVuSans-72" transform="translate(73.193359 0)"/>
      <use xlink:href="#DejaVuSans-62" transform="translate(114.306641 0)"/>
      <use xlink:href="#DejaVuSans-61" transform="translate(177.783203 0)"/>
      <use xlink:href="#DejaVuSans-6e" transform="translate(239.0625 0)"/>
      <use xlink:href="#DejaVuSans-20" transform="translate(302.441406 0)"/>
      <use xlink:href="#DejaVuSans-4f" transform="translate(334.228516 0)"/>
      <use xlink:href="#DejaVuSans-75" transform="translate(412.939453 0)"/>
      <use xlink:href="#DejaVuSans-74" transform="translate(476.318359 0)"/>
      <use xlink:href="#DejaVuSans-66" transform="translate(515.527344 0)"/>
      <use xlink:href="#DejaVuSans-69" transform="translate(550.732422 0)"/>
      <use xlink:href="#DejaVuSans-74" transform="translate(578.515625 0)"/>
      <use xlink:href="#DejaVuSans-74" transform="translate(617.724609 0)"/>
      <use xlink:href="#DejaVuSans-65" transform="translate(656.933594 0)"/>
      <use xlink:href="#DejaVuSans-72" transform="translate(718.457031 0)"/>
      <use xlink:href="#DejaVuSans-73" transform="translate(759.570312 0)"/>
     </g>
    </g>
   </g>
   <g id="text_29">
    <g clip-path="url(#p836d59b6a9)">
     <!-- Cartier -->
     <g transform="translate(127.458476 548.87295) scale(0.09 -0.09)">
      <use xlink:href="#DejaVuSans-43"/>
      <use xlink:href="#DejaVuSans-61" transform="translate(69.824219 0)"/>
      <use xlink:href="#DejaVuSans-72" transform="translate(131.103516 0)"/>
      <use xlink:href="#DejaVuSans-74" transform="translate(172.216797 0)"/>
      <use xlink:href="#DejaVuSans-69" transform="translate(211.425781 0)"/>
      <use xlink:href="#DejaVuSans-65" transform="translate(239.208984 0)"/>
      <use xlink:href="#DejaVuSans-72" transform="translate(300.732422 0)"/>
     </g>
    </g>
   </g>
   <g id="text_30">
    <g clip-path="url(#p836d59b6a9)">
     <!-- Celine -->
     <g transform="translate(99.867923 504.718823) scale(0.09 -0.09)">
      <use xlink:href="#DejaVuSans-43"/>
      <use xlink:href="#DejaVuSans-65" transform="translate(69.824219 0)"/>
      <use xlink:href="#DejaVuSans-6c" transform="translate(131.347656 0)"/>
      <use xlink:href="#DejaVuSans-69" transform="translate(159.130859 0)"/>
      <use xlink:href="#DejaVuSans-6e" transform="translate(186.914062 0)"/>
      <use xlink:href="#DejaVuSans-65" transform="translate(250.292969 0)"/>
     </g>
    </g>
   </g>
   <g id="text_31">
    <g clip-path="url(#p836d59b6a9)">
     <!-- Tiffany &amp; Co -->
     <g transform="translate(172.673062 559.525748) scale(0.09 -0.09)">
      <use xlink:href="#DejaVuSans-54"/>
      <use xlink:href="#DejaVuSans-69" transform="translate(57.958984 0)"/>
      <use xlink:href="#DejaVuSans-66" transform="translate(85.742188 0)"/>
      <use xlink:href="#DejaVuSans-66" transform="translate(120.947266 0)"/>
      <use xlink:href="#DejaVuSans-61" transform="translate(156.152344 0)"/>
      <use xlink:href="#DejaVuSans-6e" transform="translate(217.431641 0)"/>
      <use xlink:href="#DejaVuSans-79" transform="translate(280.810547 0)"/>
      <use xlink:href="#DejaVuSans-20" transform="translate(339.990234 0)"/>
      <use xlink:href="#DejaVuSans-26" transform="translate(371.777344 0)"/>
      <use xlink:href="#DejaVuSans-20" transform="translate(449.755859 0)"/>
      <use xlink:href="#DejaVuSans-43" transform="translate(481.542969 0)"/>
      <use xlink:href="#DejaVuSans-6f" transform="translate(551.367188 0)"/>
     </g>
    </g>
   </g>
   <g id="text_32">
    <g clip-path="url(#p836d59b6a9)">
     <!-- Chrome Hearts -->
     <g transform="translate(523.814277 200.589237) scale(0.09 -0.09)">
      <defs>
       <path id="DejaVuSans-48" d="M 628 4666 
L 1259 4666 
L 1259 2753 
L 3553 2753 
L 3553 4666 
L 4184 4666 
L 4184 0 
L 3553 0 
L 3553 2222 
L 1259 2222 
L 1259 0 
L 628 0 
L 628 4666 
z
" transform="scale(0.015625)"/>
      </defs>
      <use xlink:href="#DejaVuSans-43"/>
      <use xlink:href="#DejaVuSans-68" transform="translate(69.824219 0)"/>
      <use xlink:href="#DejaVuSans-72" transform="translate(133.203125 0)"/>
      <use xlink:href="#DejaVuSans-6f" transform="translate(172.066406 0)"/>
      <use xlink:href="#DejaVuSans-6d" transform="translate(233.248047 0)"/>
      <use xlink:href="#DejaVuSans-65" transform="translate(330.660156 0)"/>
      <use xlink:href="#DejaVuSans-20" transform="translate(392.183594 0)"/>
      <use xlink:href="#DejaVuSans-48" transform="translate(423.970703 0)"/>
      <use xlink:href="#DejaVuSans-65" transform="translate(499.166016 0)"/>
      <use xlink:href="#DejaVuSans-61" transform="translate(560.689453 0)"/>
      <use xlink:href="#DejaVuSans-72" transform="translate(621.96875 0)"/>
      <use xlink:href="#DejaVuSans-74" transform="translate(663.082031 0)"/>
      <use xlink:href="#DejaVuSans-73" transform="translate(702.291016 0)"/>
     </g>
    </g>
   </g>
   <g id="text_33">
    <g clip-path="url(#p836d59b6a9)">
     <!-- Fear of God -->
     <g transform="translate(425.29148 153.949359) scale(0.09 -0.09)">
      <use xlink:href="#DejaVuSans-46"/>
      <use xlink:href="#DejaVuSans-65" transform="translate(52.019531 0)"/>
      <use xlink:href="#DejaVuSans-61" transform="translate(113.542969 0)"/>
      <use xlink:href="#DejaVuSans-72" transform="translate(174.822266 0)"/>
      <use xlink:href="#DejaVuSans-20" transform="translate(215.935547 0)"/>
      <use xlink:href="#DejaVuSans-6f" transform="translate(247.722656 0)"/>
      <use xlink:href="#DejaVuSans-66" transform="translate(308.904297 0)"/>
      <use xlink:href="#DejaVuSans-20" transform="translate(344.109375 0)"/>
      <use xlink:href="#DejaVuSans-47" transform="translate(375.896484 0)"/>
      <use xlink:href="#DejaVuSans-6f" transform="translate(453.386719 0)"/>
      <use xlink:href="#DejaVuSans-64" transform="translate(514.568359 0)"/>
     </g>
    </g>
   </g>
   <g id="text_34">
    <g clip-path="url(#p836d59b6a9)">
     <!-- Gallery Dept -->
     <g transform="translate(389.118364 82.16071) scale(0.09 -0.09)">
      <defs>
       <path id="DejaVuSans-70" d="M 1159 525 
L 1159 -1331 
L 581 -1331 
L 581 3500 
L 1159 3500 
L 1159 2969 
Q 1341 3281 1617 3432 
Q 1894 3584 2278 3584 
Q 2916 3584 3314 3078 
Q 3713 2572 3713 1747 
Q 3713 922 3314 415 
Q 2916 -91 2278 -91 
Q 1894 -91 1617 61 
Q 1341 213 1159 525 
z
M 3116 1747 
Q 3116 2381 2855 2742 
Q 2594 3103 2138 3103 
Q 1681 3103 1420 2742 
Q 1159 2381 1159 1747 
Q 1159 1113 1420 752 
Q 1681 391 2138 391 
Q 2594 391 2855 752 
Q 3116 1113 3116 1747 
z
" transform="scale(0.015625)"/>
      </defs>
      <use xlink:href="#DejaVuSans-47"/>
      <use xlink:href="#DejaVuSans-61" transform="translate(77.490234 0)"/>
      <use xlink:href="#DejaVuSans-6c" transform="translate(138.769531 0)"/>
      <use xlink:href="#DejaVuSans-6c" transform="translate(166.552734 0)"/>
      <use xlink:href="#DejaVuSans-65" transform="translate(194.335938 0)"/>
      <use xlink:href="#DejaVuSans-72" transform="translate(255.859375 0)"/>
      <use xlink:href="#DejaVuSans-79" transform="translate(296.972656 0)"/>
      <use xlink:href="#DejaVuSans-20" transform="translate(356.152344 0)"/>
      <use xlink:href="#DejaVuSans-44" transform="translate(387.939453 0)"/>
      <use xlink:href="#DejaVuSans-65" transform="translate(464.941406 0)"/>
      <use xlink:href="#DejaVuSans-70" transform="translate(526.464844 0)"/>
      <use xlink:href="#DejaVuSans-74" transform="translate(589.941406 0)"/>
     </g>
    </g>
   </g>
   <g id="text_35">
    <g clip-path="url(#p836d59b6a9)">
     <!-- Coperni -->
     <g transform="translate(198.527146 127.359283) scale(0.09 -0.09)">
      <use xlink:href="#DejaVuSans-43"/>
      <use xlink:href="#DejaVuSans-6f" transform="translate(69.824219 0)"/>
      <use xlink:href="#DejaVuSans-70" transform="translate(131.005859 0)"/>
      <use xlink:href="#DejaVuSans-65" transform="translate(194.482422 0)"/>
      <use xlink:href="#DejaVuSans-72" transform="translate(256.005859 0)"/>
      <use xlink:href="#DejaVuSans-6e" transform="translate(295.369141 0)"/>
      <use xlink:href="#DejaVuSans-69" transform="translate(358.748047 0)"/>
     </g>
    </g>
   </g>
   <g id="text_36">
    <g clip-path="url(#p836d59b6a9)">
     <!-- The Frankie Shop -->
     <g transform="translate(400.461766 372.601301) scale(0.09 -0.09)">
      <defs>
       <path id="DejaVuSans-6b" d="M 581 4863 
L 1159 4863 
L 1159 1991 
L 2875 3500 
L 3609 3500 
L 1753 1863 
L 3688 0 
L 2938 0 
L 1159 1709 
L 1159 0 
L 581 0 
L 581 4863 
z
" transform="scale(0.015625)"/>
      </defs>
      <use xlink:href="#DejaVuSans-54"/>
      <use xlink:href="#DejaVuSans-68" transform="translate(61.083984 0)"/>
      <use xlink:href="#DejaVuSans-65" transform="translate(124.462891 0)"/>
      <use xlink:href="#DejaVuSans-20" transform="translate(185.986328 0)"/>
      <use xlink:href="#DejaVuSans-46" transform="translate(217.773438 0)"/>
      <use xlink:href="#DejaVuSans-72" transform="translate(268.042969 0)"/>
      <use xlink:href="#DejaVuSans-61" transform="translate(309.15625 0)"/>
      <use xlink:href="#DejaVuSans-6e" transform="translate(370.435547 0)"/>
      <use xlink:href="#DejaVuSans-6b" transform="translate(433.814453 0)"/>
      <use xlink:href="#DejaVuSans-69" transform="translate(491.724609 0)"/>
      <use xlink:href="#DejaVuSans-65" transform="translate(519.507812 0)"/>
      <use xlink:href="#DejaVuSans-20" transform="translate(581.03125 0)"/>
      <use xlink:href="#DejaVuSans-53" transform="translate(612.818359 0)"/>
      <use xlink:href="#DejaVuSans-68" transform="translate(676.294922 0)"/>
      <use xlink:href="#DejaVuSans-6f" transform="translate(739.673828 0)"/>
      <use xlink:href="#DejaVuSans-70" transform="translate(800.855469 0)"/>
     </g>
    </g>
   </g>
   <g id="text_37">
    <g clip-path="url(#p836d59b6a9)">
     <!-- Khaite -->
     <g transform="translate(189.292073 453.741953) scale(0.09 -0.09)">
      <defs>
       <path id="DejaVuSans-4b" d="M 628 4666 
L 1259 4666 
L 1259 2694 
L 3353 4666 
L 4166 4666 
L 1850 2491 
L 4331 0 
L 3500 0 
L 1259 2247 
L 1259 0 
L 628 0 
L 628 4666 
z
" transform="scale(0.015625)"/>
      </defs>
      <use xlink:href="#DejaVuSans-4b"/>
      <use xlink:href="#DejaVuSans-68" transform="translate(65.576172 0)"/>
      <use xlink:href="#DejaVuSans-61" transform="translate(128.955078 0)"/>
      <use xlink:href="#DejaVuSans-69" transform="translate(190.234375 0)"/>
      <use xlink:href="#DejaVuSans-74" transform="translate(218.017578 0)"/>
      <use xlink:href="#DejaVuSans-65" transform="translate(257.226562 0)"/>
     </g>
    </g>
   </g>
   <g id="text_38">
    <g clip-path="url(#p836d59b6a9)">
     <!-- Lemaire -->
     <g transform="translate(379.979854 457.007774) scale(0.09 -0.09)">
      <use xlink:href="#DejaVuSans-4c"/>
      <use xlink:href="#DejaVuSans-65" transform="translate(53.962891 0)"/>
      <use xlink:href="#DejaVuSans-6d" transform="translate(115.486328 0)"/>
      <use xlink:href="#DejaVuSans-61" transform="translate(212.898438 0)"/>
      <use xlink:href="#DejaVuSans-69" transform="translate(274.177734 0)"/>
      <use xlink:href="#DejaVuSans-72" transform="translate(301.960938 0)"/>
      <use xlink:href="#DejaVuSans-65" transform="translate(340.824219 0)"/>
     </g>
    </g>
   </g>
   <g id="text_39">
    <g clip-path="url(#p836d59b6a9)">
     <!-- Totême -->
     <g transform="translate(476.719034 552.794219) scale(0.09 -0.09)">
      <defs>
       <path id="DejaVuSans-ea" d="M 3597 1894 
L 3597 1613 
L 953 1613 
Q 991 1019 1311 708 
Q 1631 397 2203 397 
Q 2534 397 2845 478 
Q 3156 559 3463 722 
L 3463 178 
Q 3153 47 2828 -22 
Q 2503 -91 2169 -91 
Q 1331 -91 842 396 
Q 353 884 353 1716 
Q 353 2575 817 3079 
Q 1281 3584 2069 3584 
Q 2775 3584 3186 3129 
Q 3597 2675 3597 1894 
z
M 3022 2063 
Q 3016 2534 2758 2815 
Q 2500 3097 2075 3097 
Q 1594 3097 1305 2825 
Q 1016 2553 972 2059 
L 3022 2063 
z
M 1801 5119 
L 2263 5119 
L 3029 3944 
L 2595 3944 
L 2032 4709 
L 1470 3944 
L 1035 3944 
L 1801 5119 
z
" transform="scale(0.015625)"/>
      </defs>
      <use xlink:href="#DejaVuSans-54"/>
      <use xlink:href="#DejaVuSans-6f" transform="translate(44.083984 0)"/>
      <use xlink:href="#DejaVuSans-74" transform="translate(105.265625 0)"/>
      <use xlink:href="#DejaVuSans-ea" transform="translate(144.474609 0)"/>
      <use xlink:href="#DejaVuSans-6d" transform="translate(205.998047 0)"/>
      <use xlink:href="#DejaVuSans-65" transform="translate(303.410156 0)"/>
     </g>
    </g>
   </g>
   <g id="text_40">
    <g clip-path="url(#p836d59b6a9)">
     <!-- Rouje -->
     <g transform="translate(507.452835 586.706165) scale(0.09 -0.09)">
      <use xlink:href="#DejaVuSans-52"/>
      <use xlink:href="#DejaVuSans-6f" transform="translate(64.982422 0)"/>
      <use xlink:href="#DejaVuSans-75" transform="translate(126.164062 0)"/>
      <use xlink:href="#DejaVuSans-6a" transform="translate(189.542969 0)"/>
      <use xlink:href="#DejaVuSans-65" transform="translate(217.326172 0)"/>
     </g>
    </g>
   </g>
   <g id="text_41">
    <g clip-path="url(#p836d59b6a9)">
     <!-- Sezane -->
     <g transform="translate(646.487057 439.119957) scale(0.09 -0.09)">
      <defs>
       <path id="DejaVuSans-7a" d="M 353 3500 
L 3084 3500 
L 3084 2975 
L 922 459 
L 3084 459 
L 3084 0 
L 275 0 
L 275 525 
L 2438 3041 
L 353 3041 
L 353 3500 
z
" transform="scale(0.015625)"/>
      </defs>
      <use xlink:href="#DejaVuSans-53"/>
      <use xlink:href="#DejaVuSans-65" transform="translate(63.476562 0)"/>
      <use xlink:href="#DejaVuSans-7a" transform="translate(125 0)"/>
      <use xlink:href="#DejaVuSans-61" transform="translate(177.490234 0)"/>
      <use xlink:href="#DejaVuSans-6e" transform="translate(238.769531 0)"/>
      <use xlink:href="#DejaVuSans-65" transform="translate(302.148438 0)"/>
     </g>
    </g>
   </g>
   <g id="text_42">
    <!-- Graphe de co-occurrence des marques (clusters de communautés) -->
    <g transform="translate(194.88 20.7) scale(0.12 -0.12)">
     <defs>
      <path id="DejaVuSans-2d" d="M 313 2009 
L 1997 2009 
L 1997 1497 
L 313 1497 
L 313 2009 
z
" transform="scale(0.015625)"/>
      <path id="DejaVuSans-28" d="M 1984 4856 
Q 1566 4138 1362 3434 
Q 1159 2731 1159 2009 
Q 1159 1288 1364 580 
Q 1569 -128 1984 -844 
L 1484 -844 
Q 1016 -109 783 600 
Q 550 1309 550 2009 
Q 550 2706 781 3412 
Q 1013 4119 1484 4856 
L 1984 4856 
z
" transform="scale(0.015625)"/>
      <path id="DejaVuSans-e9" d="M 3597 1894 
L 3597 1613 
L 953 1613 
Q 991 1019 1311 708 
Q 1631 397 2203 397 
Q 2534 397 2845 478 
Q 3156 559 3463 722 
L 3463 178 
Q 3153 47 2828 -22 
Q 2503 -91 2169 -91 
Q 1331 -91 842 396 
Q 353 884 353 1716 
Q 353 2575 817 3079 
Q 1281 3584 2069 3584 
Q 2775 3584 3186 3129 
Q 3597 2675 3597 1894 
z
M 3022 2063 
Q 3016 2534 2758 2815 
Q 2500 3097 2075 3097 
Q 1594 3097 1305 2825 
Q 1016 2553 972 2059 
L 3022 2063 
z
M 2466 5119 
L 3088 5119 
L 2070 3944 
L 1591 3944 
L 2466 5119 
z
" transform="scale(0.015625)"/>
      <path id="DejaVuSans-29" d="M 513 4856 
L 1013 4856 
Q 1481 4119 1714 3412 
Q 1947 2706 1947 2009 
Q 1947 1309 1714 600 
Q 1481 -109 1013 -844 
L 513 -844 
Q 928 -128 1133 580 
Q 1338 1288 1338 2009 
Q 1338 2731 1133 3434 
Q 928 4138 513 4856 
z
" transform="scale(0.015625)"/>
     </defs>
     <use xlink:href="#DejaVuSans-47"/>
     <use xlink:href="#DejaVuSans-72" transform="translate(77.490234 0)"/>
     <use xlink:href="#DejaVuSans-61" transform="translate(118.603516 0)"/>
     <use xlink:href="#DejaVuSans-70" transform="translate(179.882812 0)"/>
     <use xlink:href="#DejaVuSans-68" transform="translate(243.359375 0)"/>
     <use xlink:href="#DejaVuSans-65" transform="translate(306.738281 0)"/>
     <use xlink:href="#DejaVuSans-20" transform="translate(368.261719 0)"/>
     <use xlink:href="#DejaVuSans-64" transform="translate(400.048828 0)"/>
     <use xlink:href="#DejaVuSans-65" transform="translate(463.525391 0)"/>
     <use xlink:href="#DejaVuSans-20" transform="translate(525.048828 0)"/>
     <use xlink:href="#DejaVuSans-63" transform="translate(556.835938 0)"/>
     <use xlink:href="#DejaVuSans-6f" transform="translate(611.816406 0)"/>
     <use xlink:href="#DejaVuSans-2d" transform="translate(674.873047 0)"/>
     <use xlink:href="#DejaVuSans-6f" transform="translate(712.832031 0)"/>
     <use xlink:href="#DejaVuSans-63" transform="translate(774.013672 0)"/>
     <use xlink:href="#DejaVuSans-63" transform="translate(828.994141 0)"/>
     <use xlink:href="#DejaVuSans-75" transform="translate(883.974609 0)"/>
     <use xlink:href="#DejaVuSans-72" transform="translate(947.353516 0)"/>
     <use xlink:href="#DejaVuSans-72" transform="translate(986.716797 0)"/>
     <use xlink:href="#DejaVuSans-65" transform="translate(1025.580078 0)"/>
     <use xlink:href="#DejaVuSans-6e" transform="translate(1087.103516 0)"/>
     <use xlink:href="#DejaVuSans-63" transform="translate(1150.482422 0)"/>
     <use xlink:href="#DejaVuSans-65" transform="translate(1205.462891 0)"/>
     <use xlink:href="#DejaVuSans-20" transform="translate(1266.986328 0)"/>
     <use xlink:href="#DejaVuSans-64" transform="translate(1298.773438 0)"/>
     <use xlink:href="#DejaVuSans-65" transform="translate(1362.25 0)"/>
     <use xlink:href="#DejaVuSans-73" transform="translate(1423.773438 0)"/>
     <use xlink:href="#DejaVuSans-20" transform="translate(1475.873047 0)"/>
     <use xlink:href="#DejaVuSans-6d" transform="translate(1507.660156 0)"/>
     <use xlink:href="#DejaVuSans-61" transform="translate(1605.072266 0)"/>
     <use xlink:href="#DejaVuSans-72" transform="translate(1666.351562 0)"/>
     <use xlink:href="#DejaVuSans-71" transform="translate(1705.714844 0)"/>
     <use xlink:href="#DejaVuSans-75" transform="translate(1769.191406 0)"/>
     <use xlink:href="#DejaVuSans-65" transform="translate(1832.570312 0)"/>
     <use xlink:href="#DejaVuSans-73" transform="translate(1894.09375 0)"/>
     <use xlink:href="#DejaVuSans-20" transform="translate(1946.193359 0)"/>
     <use xlink:href="#DejaVuSans-28" transform="translate(1977.980469 0)"/>
     <use xlink:href="#DejaVuSans-63" transform="translate(2016.994141 0)"/>
     <use xlink:href="#DejaVuSans-6c" transform="translate(2071.974609 0)"/>
     <use xlink:href="#DejaVuSans-75" transform="translate(2099.757812 0)"/>
     <use xlink:href="#DejaVuSans-73" transform="translate(2163.136719 0)"/>
     <use xlink:href="#DejaVuSans-74" transform="translate(2215.236328 0)"/>
     <use xlink:href="#DejaVuSans-65" transform="translate(2254.445312 0)"/>
     <use xlink:href="#DejaVuSans-72" transform="translate(2315.96875 0)"/>
     <use xlink:href="#DejaVuSans-73" transform="translate(2357.082031 0)"/>
     <use xlink:href="#DejaVuSans-20" transform="translate(2409.181641 0)"/>
     <use xlink:href="#DejaVuSans-64" transform="translate(2440.96875 0)"/>
     <use xlink:href="#DejaVuSans-65" transform="translate(2504.445312 0)"/>
     <use xlink:href="#DejaVuSans-20" transform="translate(2565.96875 0)"/>
     <use xlink:href="#DejaVuSans-63" transform="translate(2597.755859 0)"/>
     <use xlink:href="#DejaVuSans-6f" transform="translate(2652.736328 0)"/>
     <use xlink:href="#DejaVuSans-6d" transform="translate(2713.917969 0)"/>
     <use xlink:href="#DejaVuSans-6d" transform="translate(2811.330078 0)"/>
     <use xlink:href="#DejaVuSans-75" transform="translate(2908.742188 0)"/>
     <use xlink:href="#DejaVuSans-6e" transform="translate(2972.121094 0)"/>
     <use xlink:href="#DejaVuSans-61" transform="translate(3035.5 0)"/>
     <use xlink:href="#DejaVuSans-75" transform="translate(3096.779297 0)"/>
     <use xlink:href="#DejaVuSans-74" transform="translate(3160.158203 0)"/>
     <use xlink:href="#DejaVuSans-e9" transform="translate(3199.367188 0)"/>
     <use xlink:href="#DejaVuSans-73" transform="translate(3260.890625 0)"/>
     <use xlink:href="#DejaVuSans-29" transform="translate(3312.990234 0)"/>
    </g>
   </g>
  </g>
 </g>
 <defs>
  <clipPath id="p836d59b6a9">
   <rect x="10.8" y="26.7" width="770.4" height="610.5"/>
  </clipPath>
 </defs>
</svg>
